<svg width="46" height="46" viewBox="0 0 46 46" fill="none" xmlns="http://www.w3.org/2000/svg">
    <circle cx="23" cy="23" r="23" fill="#FFEE95"/>
    <path fill-rule="evenodd" clip-rule="evenodd" d="M27.5 14a.9.9 0 0 1 .9.9v.9h.9a2.7 2.7 0 0 1 2.7 2.7v10.8a2.7 2.7 0 0 1-2.7 2.7H16.7a2.7 2.7 0 0 1-2.7-2.7V18.5a2.7 2.7 0 0 1 2.7-2.7h.9v-.9a.9.9 0 1 1 1.8 0v.9h7.2v-.9a.9.9 0 0 1 .9-.9zm2.7 9H15.8v6.3a.9.9 0 0 0 .9.9h12.6a.9.9 0 0 0 .9-.9V23zm-2.7 1.8a.9.9 0 0 1 .9.9v1.8a.9.9 0 0 1-.9.9h-1.8a.9.9 0 0 1-.9-.9v-1.8a.9.9 0 0 1 .9-.9h1.8zm-9.9-7.2h-.9a.9.9 0 0 0-.9.9v2.7h14.4v-2.7a.9.9 0 0 0-.9-.9h-.9v.9a.9.9 0 1 1-1.8 0v-.9h-7.2v.9a.9.9 0 1 1-1.8 0v-.9z" fill="#000"/>
</svg>
