<svg width="459" height="219" viewBox="0 0 459 219" fill="none" xmlns="http://www.w3.org/2000/svg">
    <path d="M7.382 5.228c1.027 0 1.927.2 2.702.602a4.236 4.236 0 0 1 1.806 1.722c.43.737.644 1.596.644 2.576s-.215 1.839-.644 2.576a4.285 4.285 0 0 1-1.806 1.694c-.775.401-1.675.602-2.702.602H3.966V5.228h3.416zm-.07 8.106c1.027 0 1.82-.28 2.38-.84.56-.56.84-1.349.84-2.366 0-1.017-.28-1.81-.84-2.38-.56-.579-1.353-.868-2.38-.868H5.926v6.454h1.386zm13.9-2.38c0 .28-.02.532-.057.756h-5.67c.047.56.243.999.588 1.316.346.317.77.476 1.274.476.728 0 1.246-.313 1.554-.938h2.114a3.569 3.569 0 0 1-1.288 1.848c-.634.476-1.414.714-2.338.714-.747 0-1.418-.163-2.016-.49a3.606 3.606 0 0 1-1.386-1.414c-.326-.607-.49-1.307-.49-2.1 0-.803.164-1.507.49-2.114a3.419 3.419 0 0 1 1.372-1.4c.588-.327 1.265-.49 2.03-.49.738 0 1.396.159 1.974.476.588.317 1.04.77 1.358 1.358.327.579.49 1.246.49 2.002zm-2.03-.56c-.01-.504-.192-.905-.547-1.204-.355-.308-.789-.462-1.302-.462-.485 0-.896.15-1.232.448-.326.29-.527.695-.602 1.218h3.682zm6.428 4.732c-.635 0-1.204-.112-1.708-.336a3.132 3.132 0 0 1-1.204-.938 2.386 2.386 0 0 1-.476-1.302h1.974c.037.299.182.546.434.742.261.196.583.294.966.294.373 0 .662-.075.868-.224.214-.15.322-.34.322-.574 0-.252-.13-.439-.392-.56-.252-.13-.658-.27-1.218-.42a10.73 10.73 0 0 1-1.428-.434 2.537 2.537 0 0 1-.952-.686c-.262-.308-.392-.723-.392-1.246 0-.43.121-.821.364-1.176.252-.355.606-.635 1.064-.84.466-.205 1.012-.308 1.638-.308.924 0 1.661.233 2.212.7.55.457.854 1.078.91 1.862h-1.876a.984.984 0 0 0-.392-.728c-.224-.187-.528-.28-.91-.28-.355 0-.63.065-.826.196a.63.63 0 0 0-.28.546c0 .261.13.462.392.602.261.13.667.266 1.218.406.56.14 1.022.285 1.386.434.364.15.676.383.938.7.27.308.41.719.42 1.232 0 .448-.126.85-.378 1.204-.243.355-.598.635-1.064.84-.458.196-.994.294-1.61.294zm6.943-6.272v3.752c0 .261.06.453.182.574.13.112.345.168.644.168h.91V15h-1.232c-1.652 0-2.478-.803-2.478-2.408V8.854h-.924v-1.61h.924V5.326h1.974v1.918h1.736v1.61h-1.736zm4.14-2.534c-.346 0-.635-.107-.869-.322a1.123 1.123 0 0 1-.336-.826c0-.327.112-.597.336-.812.234-.224.523-.336.868-.336.346 0 .63.112.854.336.234.215.35.485.35.812a1.1 1.1 0 0 1-.35.826c-.224.215-.508.322-.854.322zm.965.924V15h-1.96V7.244h1.96zm6.235-.112c.924 0 1.67.294 2.24.882.57.579.854 1.39.854 2.436V15h-1.96v-4.284c0-.616-.154-1.087-.462-1.414-.308-.336-.728-.504-1.26-.504-.541 0-.97.168-1.288.504-.308.327-.462.798-.462 1.414V15h-1.96V7.244h1.96v.966c.261-.336.593-.597.994-.784a3.08 3.08 0 0 1 1.344-.294zm4.454 3.962c0-.784.154-1.48.462-2.086.317-.607.742-1.073 1.274-1.4a3.428 3.428 0 0 1 1.806-.49c.578 0 1.082.117 1.512.35.438.233.788.527 1.05.882V7.244h1.974V15H54.45v-1.134c-.252.364-.602.667-1.05.91-.439.233-.948.35-1.526.35-.654 0-1.25-.168-1.792-.504-.532-.336-.957-.807-1.274-1.414-.308-.616-.462-1.32-.462-2.114zm6.104.028c0-.476-.094-.882-.28-1.218a1.916 1.916 0 0 0-.756-.784 1.982 1.982 0 0 0-1.022-.28c-.364 0-.7.089-1.008.266a2.04 2.04 0 0 0-.756.784c-.187.336-.28.737-.28 1.204 0 .467.093.877.28 1.232.196.345.448.611.756.798.317.187.653.28 1.008.28.364 0 .704-.089 1.022-.266.317-.187.57-.448.756-.784.186-.345.28-.756.28-1.232zm6.17-2.268v3.752c0 .261.06.453.182.574.13.112.345.168.644.168h.91V15h-1.232c-1.652 0-2.478-.803-2.478-2.408V8.854h-.924v-1.61h.924V5.326h1.974v1.918h1.736v1.61h-1.736zm4.14-2.534c-.346 0-.635-.107-.868-.322a1.123 1.123 0 0 1-.336-.826c0-.327.112-.597.336-.812.233-.224.522-.336.868-.336.345 0 .63.112.854.336.233.215.35.485.35.812a1.1 1.1 0 0 1-.35.826c-.224.215-.509.322-.854.322zm.966.924V15h-1.96V7.244h1.96zm5.38 7.882c-.746 0-1.418-.163-2.016-.49a3.675 3.675 0 0 1-1.414-1.414c-.336-.607-.504-1.307-.504-2.1 0-.793.173-1.493.518-2.1a3.647 3.647 0 0 1 1.442-1.4 4.118 4.118 0 0 1 2.03-.504c.747 0 1.424.168 2.03.504a3.554 3.554 0 0 1 1.428 1.4c.355.607.532 1.307.532 2.1 0 .793-.182 1.493-.546 2.1a3.72 3.72 0 0 1-1.456 1.414c-.606.327-1.288.49-2.044.49zm0-1.708c.355 0 .686-.084.994-.252.318-.177.57-.439.756-.784.187-.345.28-.765.28-1.26 0-.737-.196-1.302-.588-1.694a1.877 1.877 0 0 0-1.414-.602c-.56 0-1.031.2-1.414.602-.373.392-.56.957-.56 1.694s.182 1.307.546 1.708c.374.392.84.588 1.4.588zm9.782-6.286c.924 0 1.67.294 2.24.882.57.579.854 1.39.854 2.436V15h-1.96v-4.284c0-.616-.154-1.087-.462-1.414-.308-.336-.728-.504-1.26-.504-.541 0-.97.168-1.288.504-.308.327-.462.798-.462 1.414V15h-1.96V7.244h1.96v.966c.261-.336.593-.597.994-.784a3.08 3.08 0 0 1 1.344-.294zM97.541 15h-1.96l-4.438-6.706V15h-1.96V5.214h1.96l4.438 6.72v-6.72h1.96V15zm1.433-3.906c0-.784.154-1.48.462-2.086.317-.607.742-1.073 1.274-1.4a3.426 3.426 0 0 1 1.806-.49c.578 0 1.082.117 1.512.35.438.233.788.527 1.05.882V7.244h1.974V15h-1.974v-1.134c-.252.364-.602.667-1.05.91-.439.233-.948.35-1.526.35a3.329 3.329 0 0 1-1.792-.504c-.532-.336-.957-.807-1.274-1.414-.308-.616-.462-1.32-.462-2.114zm6.104.028c0-.476-.094-.882-.28-1.218a1.92 1.92 0 0 0-.756-.784 1.984 1.984 0 0 0-1.022-.28c-.364 0-.7.089-1.008.266a2.04 2.04 0 0 0-.756.784c-.187.336-.28.737-.28 1.204 0 .467.093.877.28 1.232.196.345.448.611.756.798.317.187.653.28 1.008.28.364 0 .704-.089 1.022-.266.317-.187.569-.448.756-.784.186-.345.28-.756.28-1.232zm13.52-3.99c.952 0 1.717.294 2.296.882.588.579.882 1.39.882 2.436V15h-1.96v-4.284c0-.607-.154-1.069-.462-1.386-.308-.327-.728-.49-1.26-.49s-.957.163-1.274.49c-.308.317-.462.78-.462 1.386V15h-1.96v-4.284c0-.607-.154-1.069-.462-1.386-.308-.327-.728-.49-1.26-.49-.541 0-.971.163-1.288.49-.308.317-.462.78-.462 1.386V15h-1.96V7.244h1.96v.938c.252-.327.574-.583.966-.77a3.08 3.08 0 0 1 1.316-.28c.607 0 1.148.13 1.624.392.476.252.845.616 1.106 1.092a2.82 2.82 0 0 1 1.092-1.078 3.167 3.167 0 0 1 1.568-.406zm12.248 3.822c0 .28-.019.532-.056.756h-5.67c.047.56.243.999.588 1.316.345.317.77.476 1.274.476.728 0 1.246-.313 1.554-.938h2.114a3.567 3.567 0 0 1-1.288 1.848c-.635.476-1.414.714-2.338.714-.747 0-1.419-.163-2.016-.49a3.606 3.606 0 0 1-1.386-1.414c-.327-.607-.49-1.307-.49-2.1 0-.803.163-1.507.49-2.114a3.421 3.421 0 0 1 1.372-1.4c.588-.327 1.265-.49 2.03-.49.737 0 1.395.159 1.974.476.588.317 1.041.77 1.358 1.358.327.579.49 1.246.49 2.002zm-2.03-.56c-.009-.504-.191-.905-.546-1.204-.355-.308-.789-.462-1.302-.462-.485 0-.896.15-1.232.448-.327.29-.527.695-.602 1.218h3.682zM6.37 71l-4.018-4.452V71H1.078v-9.758h1.274v4.522l4.032-4.522h1.61L3.57 66.128 8.036 71H6.37zm4.363-9.758V71H9.459v-9.758h1.274zM18.196 71l-4.018-4.452V71h-1.274v-9.758h1.274v4.522l4.032-4.522h1.61l-4.424 4.886L19.862 71h-1.666zm8.857-2.17h-4.256L22.013 71h-1.344l3.528-9.702h1.47L29.181 71h-1.344l-.784-2.17zm-.364-1.036-1.764-4.928-1.764 4.928h3.528zm7.286-1.68c0-.952.215-1.806.644-2.562a4.68 4.68 0 0 1 1.75-1.792 4.883 4.883 0 0 1 2.478-.644c1.064 0 1.993.257 2.786.77.793.513 1.372 1.241 1.736 2.184h-1.526a3.048 3.048 0 0 0-1.176-1.358c-.504-.317-1.11-.476-1.82-.476-.681 0-1.293.159-1.834.476-.541.317-.966.77-1.274 1.358-.308.579-.462 1.26-.462 2.044 0 .775.154 1.456.462 2.044a3.34 3.34 0 0 0 1.274 1.344c.541.317 1.153.476 1.834.476.71 0 1.316-.154 1.82-.462.513-.317.905-.77 1.176-1.358h1.526c-.364.933-.943 1.657-1.736 2.17-.793.504-1.722.756-2.786.756-.905 0-1.731-.21-2.478-.63a4.708 4.708 0 0 1-1.75-1.778c-.43-.756-.644-1.61-.644-2.562zm10.814 1.022c0-.784.16-1.47.477-2.058a3.458 3.458 0 0 1 1.302-1.386c.56-.327 1.18-.49 1.861-.49.672 0 1.256.145 1.75.434.495.29.864.653 1.106 1.092v-1.4h1.289V71h-1.288v-1.428c-.253.448-.63.821-1.135 1.12-.494.29-1.073.434-1.736.434a3.478 3.478 0 0 1-1.847-.504 3.534 3.534 0 0 1-1.302-1.414c-.318-.607-.477-1.297-.477-2.072zm6.496.014c0-.579-.116-1.083-.35-1.512a2.41 2.41 0 0 0-.952-.98 2.498 2.498 0 0 0-1.301-.35c-.477 0-.91.112-1.303.336-.392.224-.704.55-.938.98-.233.43-.35.933-.35 1.512 0 .588.117 1.101.35 1.54.234.43.546.76.938.994.393.224.827.336 1.303.336.475 0 .91-.112 1.301-.336.402-.233.72-.565.953-.994.233-.439.35-.947.35-1.526zM56 64.574c.224-.439.542-.78.952-1.022.42-.243.93-.364 1.526-.364v1.316h-.336c-1.428 0-2.142.775-2.142 2.324V71h-1.274v-7.672H56v1.246zm10.95 2.296c0 .243-.015.5-.043.77h-6.132c.047.756.303 1.349.77 1.778.476.42 1.05.63 1.722.63.55 0 1.008-.126 1.372-.378.373-.261.635-.607.784-1.036h1.372a3.332 3.332 0 0 1-1.232 1.806c-.616.457-1.381.686-2.296.686-.728 0-1.381-.163-1.96-.49a3.495 3.495 0 0 1-1.344-1.386c-.327-.607-.49-1.307-.49-2.1 0-.793.159-1.489.476-2.086a3.309 3.309 0 0 1 1.33-1.372c.579-.327 1.241-.49 1.988-.49.728 0 1.372.159 1.932.476.56.317.99.756 1.288 1.316.308.55.462 1.176.462 1.876zm-1.317-.266c0-.485-.107-.9-.322-1.246a2.026 2.026 0 0 0-.882-.798 2.63 2.63 0 0 0-1.218-.28c-.644 0-1.195.205-1.652.616-.448.41-.705.98-.77 1.708h4.844zM5.992 95.242v7.21c0 .803-.247 1.447-.742 1.932-.495.476-1.148.714-1.96.714-.821 0-1.48-.243-1.974-.728-.495-.495-.742-1.167-.742-2.016h1.274c.01.476.13.863.364 1.162.243.299.602.448 1.078.448.476 0 .83-.14 1.064-.42.233-.289.35-.653.35-1.092v-7.21h1.288zm2.034 5.894c0-.784.158-1.47.476-2.058a3.458 3.458 0 0 1 1.302-1.386c.56-.327 1.18-.49 1.862-.49.672 0 1.255.145 1.75.434.495.29.863.653 1.106 1.092v-1.4h1.288V105h-1.288v-1.428c-.252.448-.63.821-1.134 1.12-.495.289-1.073.434-1.736.434a3.478 3.478 0 0 1-1.848-.504 3.533 3.533 0 0 1-1.302-1.414c-.318-.607-.476-1.297-.476-2.072zm6.496.014c0-.579-.117-1.083-.35-1.512a2.41 2.41 0 0 0-.952-.98 2.498 2.498 0 0 0-1.302-.35c-.476 0-.91.112-1.302.336-.392.224-.705.55-.938.98-.234.429-.35.933-.35 1.512 0 .588.116 1.101.35 1.54.233.429.546.761.938.994.392.224.826.336 1.302.336.476 0 .91-.112 1.302-.336.401-.233.718-.565.952-.994.233-.439.35-.947.35-1.526zm12.667-3.962c.597 0 1.13.126 1.596.378.466.243.835.611 1.106 1.106.27.495.406 1.097.406 1.806V105h-1.26v-4.34c0-.765-.192-1.349-.574-1.75-.374-.41-.882-.616-1.526-.616-.663 0-1.19.215-1.582.644-.392.42-.588 1.031-.588 1.834V105h-1.26v-4.34c0-.765-.192-1.349-.574-1.75-.374-.41-.882-.616-1.526-.616-.663 0-1.19.215-1.582.644-.392.42-.588 1.031-.588 1.834V105h-1.274v-7.672h1.274v1.106a2.53 2.53 0 0 1 1.008-.924c.43-.215.9-.322 1.414-.322.644 0 1.213.145 1.708.434.494.29.863.714 1.106 1.274.214-.541.57-.961 1.064-1.26a3.134 3.134 0 0 1 1.652-.448zm12.198 3.682c0 .243-.014.499-.042.77h-6.132c.046.756.303 1.349.77 1.778.476.42 1.05.63 1.722.63.55 0 1.008-.126 1.372-.378.373-.261.634-.607.784-1.036h1.372A3.334 3.334 0 0 1 38 104.44c-.616.457-1.382.686-2.296.686-.728 0-1.382-.163-1.96-.49a3.499 3.499 0 0 1-1.344-1.386c-.327-.607-.49-1.307-.49-2.1 0-.793.158-1.489.476-2.086a3.309 3.309 0 0 1 1.33-1.372c.578-.327 1.24-.49 1.988-.49.728 0 1.372.159 1.932.476.56.317.989.756 1.288 1.316.308.55.462 1.176.462 1.876zm-1.316-.266c0-.485-.108-.9-.322-1.246a2.026 2.026 0 0 0-.882-.798 2.63 2.63 0 0 0-1.218-.28c-.644 0-1.195.205-1.652.616-.448.41-.705.98-.77 1.708h4.844zm5.713 4.522c-.588 0-1.115-.098-1.582-.294-.466-.205-.835-.485-1.106-.84a2.27 2.27 0 0 1-.448-1.246h1.316c.038.383.215.695.532.938.327.243.752.364 1.274.364.486 0 .868-.107 1.148-.322.28-.215.42-.485.42-.812a.786.786 0 0 0-.448-.742c-.298-.168-.76-.331-1.386-.49a11.408 11.408 0 0 1-1.4-.448 2.66 2.66 0 0 1-.924-.686c-.252-.308-.378-.71-.378-1.204 0-.392.117-.751.35-1.078.234-.327.565-.583.994-.77.43-.196.92-.294 1.47-.294.85 0 1.536.215 2.058.644.523.43.803 1.017.84 1.764H45.24a1.307 1.307 0 0 0-.49-.966c-.29-.243-.681-.364-1.176-.364-.457 0-.821.098-1.092.294-.27.196-.406.453-.406.77 0 .252.08.462.238.63.168.159.374.289.616.392.252.093.598.201 1.036.322.55.149.999.299 1.344.448.346.14.64.355.882.644.252.289.383.667.392 1.134 0 .42-.116.798-.35 1.134-.233.336-.564.602-.994.798-.42.187-.905.28-1.456.28zm7.945 0a3.963 3.963 0 0 1-1.96-.49 3.566 3.566 0 0 1-1.372-1.386c-.327-.607-.49-1.307-.49-2.1 0-.784.168-1.475.504-2.072a3.507 3.507 0 0 1 1.4-1.386 3.995 3.995 0 0 1 1.974-.49c.728 0 1.386.163 1.974.49a3.44 3.44 0 0 1 1.386 1.372c.345.597.518 1.293.518 2.086 0 .793-.178 1.493-.532 2.1a3.609 3.609 0 0 1-1.414 1.386 4.07 4.07 0 0 1-1.988.49zm0-1.12c.457 0 .886-.107 1.288-.322a2.41 2.41 0 0 0 .966-.966c.252-.429.378-.952.378-1.568 0-.616-.122-1.139-.364-1.568-.243-.43-.56-.747-.952-.952a2.61 2.61 0 0 0-1.274-.322c-.467 0-.896.107-1.288.322-.383.205-.691.523-.924.952-.234.429-.35.952-.35 1.568 0 .625.112 1.153.336 1.582.233.429.541.751.924.966.382.205.802.308 1.26.308zm9.347-6.818c.933 0 1.69.285 2.268.854.578.56.868 1.372.868 2.436V105h-1.26v-4.34c0-.765-.192-1.349-.574-1.75-.383-.41-.906-.616-1.568-.616-.672 0-1.209.21-1.61.63-.392.42-.588 1.031-.588 1.834V105h-1.274v-7.672h1.274v1.092a2.54 2.54 0 0 1 1.022-.91c.438-.215.92-.322 1.442-.322zm4.74 3.962c0-.793.16-1.484.477-2.072a3.429 3.429 0 0 1 1.316-1.386c.57-.327 1.218-.49 1.946-.49.942 0 1.717.229 2.324.686.616.457 1.022 1.092 1.218 1.904h-1.372a1.958 1.958 0 0 0-.77-1.106c-.373-.27-.84-.406-1.4-.406-.728 0-1.316.252-1.764.756-.448.495-.672 1.199-.672 2.114 0 .924.224 1.638.672 2.142.448.504 1.036.756 1.764.756.56 0 1.026-.131 1.4-.392.373-.261.63-.635.77-1.12h1.372c-.206.784-.616 1.414-1.232 1.89-.616.467-1.386.7-2.31.7-.728 0-1.377-.163-1.946-.49a3.433 3.433 0 0 1-1.316-1.386c-.318-.597-.476-1.297-.476-2.1zm8.505-.014c0-.784.158-1.47.476-2.058a3.458 3.458 0 0 1 1.302-1.386c.56-.327 1.18-.49 1.862-.49.672 0 1.255.145 1.75.434.494.29.863.653 1.106 1.092v-1.4h1.288V105h-1.288v-1.428c-.252.448-.63.821-1.134 1.12-.495.289-1.074.434-1.736.434a3.477 3.477 0 0 1-1.848-.504 3.532 3.532 0 0 1-1.302-1.414c-.318-.607-.476-1.297-.476-2.072zm6.496.014c0-.579-.117-1.083-.35-1.512a2.41 2.41 0 0 0-.952-.98 2.498 2.498 0 0 0-1.302-.35c-.476 0-.91.112-1.302.336-.392.224-.705.55-.938.98-.234.429-.35.933-.35 1.512 0 .588.116 1.101.35 1.54.233.429.546.761.938.994.392.224.826.336 1.302.336.476 0 .91-.112 1.302-.336.401-.233.718-.565.952-.994.233-.439.35-.947.35-1.526zm4.715-2.576c.224-.439.541-.78.952-1.022.42-.243.928-.364 1.526-.364v1.316h-.336c-1.428 0-2.142.775-2.142 2.324V105h-1.274v-7.672h1.274v1.246zm10.948 2.296c0 .243-.014.499-.042.77h-6.132c.047.756.304 1.349.77 1.778.476.42 1.05.63 1.722.63.551 0 1.008-.126 1.372-.378.374-.261.635-.607.784-1.036h1.372a3.334 3.334 0 0 1-1.232 1.806c-.616.457-1.381.686-2.296.686-.728 0-1.381-.163-1.96-.49a3.499 3.499 0 0 1-1.344-1.386c-.326-.607-.49-1.307-.49-2.1 0-.793.159-1.489.476-2.086a3.31 3.31 0 0 1 1.33-1.372c.579-.327 1.242-.49 1.988-.49.728 0 1.372.159 1.932.476.56.317.99.756 1.288 1.316.308.55.462 1.176.462 1.876zm-1.316-.266c0-.485-.107-.9-.322-1.246a2.025 2.025 0 0 0-.882-.798 2.63 2.63 0 0 0-1.218-.28c-.644 0-1.194.205-1.652.616-.448.41-.704.98-.77 1.708h4.844zm4.552-2.226v4.522c0 .373.08.639.238.798.159.149.434.224.826.224h.938V105h-1.148c-.71 0-1.241-.163-1.596-.49-.355-.327-.532-.863-.532-1.61v-4.522h-.994v-1.05h.994v-1.932h1.274v1.932h2.002v1.05h-2.002zm10.546 2.492c0 .243-.014.499-.042.77h-6.132c.046.756.303 1.349.77 1.778.476.42 1.05.63 1.722.63.55 0 1.008-.126 1.372-.378.373-.261.634-.607.784-1.036h1.372a3.338 3.338 0 0 1-1.232 1.806c-.616.457-1.382.686-2.296.686-.728 0-1.382-.163-1.96-.49a3.49 3.49 0 0 1-1.344-1.386c-.327-.607-.49-1.307-.49-2.1 0-.793.158-1.489.476-2.086a3.303 3.303 0 0 1 1.33-1.372c.578-.327 1.241-.49 1.988-.49.728 0 1.372.159 1.932.476.56.317.989.756 1.288 1.316.308.55.462 1.176.462 1.876zm-1.316-.266c0-.485-.108-.9-.322-1.246a2.03 2.03 0 0 0-.882-.798 2.63 2.63 0 0 0-1.218-.28c-.644 0-1.195.205-1.652.616-.448.41-.705.98-.77 1.708h4.844zm7.281 4.396-3.01-3.388V105h-1.274V94.64h1.274v6.09l2.954-3.402h1.778l-3.612 3.822 3.626 3.85h-1.736zm5.637.126a4.052 4.052 0 0 1-1.582-.294c-.466-.205-.835-.485-1.106-.84a2.275 2.275 0 0 1-.448-1.246h1.316c.038.383.215.695.532.938.327.243.752.364 1.274.364.486 0 .868-.107 1.148-.322.28-.215.42-.485.42-.812a.786.786 0 0 0-.448-.742c-.298-.168-.76-.331-1.386-.49a11.425 11.425 0 0 1-1.4-.448 2.67 2.67 0 0 1-.924-.686c-.252-.308-.378-.71-.378-1.204 0-.392.117-.751.35-1.078.234-.327.565-.583.994-.77.43-.196.92-.294 1.47-.294.85 0 1.536.215 2.058.644.523.43.803 1.017.84 1.764h-1.274a1.306 1.306 0 0 0-.49-.966c-.289-.243-.681-.364-1.176-.364-.457 0-.821.098-1.092.294-.27.196-.406.453-.406.77 0 .252.08.462.238.63.168.159.374.289.616.392.252.093.598.201 1.036.322.551.149.999.299 1.344.448.346.14.64.355.882.644.252.289.383.667.392 1.134 0 .42-.116.798-.35 1.134-.233.336-.564.602-.994.798-.42.187-.905.28-1.456.28zM10.976 129.312V139H9.702v-7.224L6.482 139h-.896l-3.234-7.238V139H1.078v-9.688H2.45l3.584 8.008 3.584-8.008h1.358zm1.685 5.824c0-.784.158-1.47.476-2.058a3.462 3.462 0 0 1 1.302-1.386c.56-.327 1.18-.49 1.862-.49.672 0 1.255.145 1.75.434.494.289.863.653 1.106 1.092v-1.4h1.288V139h-1.288v-1.428c-.252.448-.63.821-1.134 1.12-.495.289-1.074.434-1.736.434a3.478 3.478 0 0 1-1.848-.504 3.532 3.532 0 0 1-1.302-1.414c-.318-.607-.476-1.297-.476-2.072zm6.496.014c0-.579-.117-1.083-.35-1.512a2.412 2.412 0 0 0-.952-.98 2.5 2.5 0 0 0-1.302-.35c-.476 0-.91.112-1.302.336a2.44 2.44 0 0 0-.938.98c-.234.429-.35.933-.35 1.512 0 .588.116 1.101.35 1.54.233.429.546.761.938.994.392.224.826.336 1.302.336.476 0 .91-.112 1.302-.336.4-.233.718-.565.952-.994.233-.439.35-.947.35-1.526zm4.715-2.576c.224-.439.54-.779.951-1.022.42-.243.93-.364 1.526-.364v1.316h-.335c-1.428 0-2.142.775-2.142 2.324V139h-1.274v-7.672h1.274v1.246zm5.222 0c.224-.439.541-.779.952-1.022.42-.243.929-.364 1.526-.364v1.316h-.336c-1.428 0-2.142.775-2.142 2.324V139H27.82v-7.672h1.274v1.246zm10.557-1.246-4.62 11.284h-1.316l1.512-3.696-3.094-7.588h1.414l2.408 6.216 2.38-6.216h1.316zm5.088-.14c.58 0 1.102.126 1.569.378.466.243.83.611 1.092 1.106.27.495.406 1.097.406 1.806V139h-1.26v-4.34c0-.765-.192-1.349-.575-1.75-.382-.411-.905-.616-1.567-.616-.673 0-1.21.21-1.61.63-.392.42-.588 1.031-.588 1.834V139H40.93v-10.36h1.275v3.78a2.522 2.522 0 0 1 1.035-.91 3.417 3.417 0 0 1 1.498-.322zm12.148 3.682c0 .243-.014.499-.042.77h-6.132c.046.756.303 1.349.77 1.778.476.42 1.05.63 1.722.63.55 0 1.008-.126 1.372-.378.373-.261.634-.607.784-1.036h1.372a3.334 3.334 0 0 1-1.232 1.806c-.616.457-1.382.686-2.296.686-.728 0-1.382-.163-1.96-.49a3.499 3.499 0 0 1-1.344-1.386c-.327-.607-.49-1.307-.49-2.1 0-.793.158-1.489.476-2.086a3.309 3.309 0 0 1 1.33-1.372c.578-.327 1.24-.49 1.988-.49.728 0 1.372.159 1.932.476.56.317.989.756 1.288 1.316.308.551.462 1.176.462 1.876zm-1.316-.266c0-.485-.108-.901-.322-1.246a2.023 2.023 0 0 0-.882-.798 2.626 2.626 0 0 0-1.218-.28c-.644 0-1.195.205-1.652.616-.448.411-.705.98-.77 1.708h4.844zm12.223-3.416c.598 0 1.13.126 1.596.378.467.243.836.611 1.106 1.106.27.495.406 1.097.406 1.806V139h-1.26v-4.34c0-.765-.191-1.349-.574-1.75-.373-.411-.882-.616-1.526-.616-.662 0-1.19.215-1.582.644-.392.42-.588 1.031-.588 1.834V139h-1.26v-4.34c0-.765-.191-1.349-.574-1.75-.373-.411-.882-.616-1.526-.616-.662 0-1.19.215-1.582.644-.392.42-.588 1.031-.588 1.834V139h-1.274v-7.672h1.274v1.106a2.534 2.534 0 0 1 1.008-.924c.43-.215.9-.322 1.414-.322.644 0 1.214.145 1.708.434.495.289.864.714 1.106 1.274a2.52 2.52 0 0 1 1.064-1.26 3.131 3.131 0 0 1 1.652-.448zm6.472 1.554c.252-.439.625-.803 1.12-1.092.504-.299 1.087-.448 1.75-.448a3.55 3.55 0 0 1 1.848.49c.56.327.999.789 1.316 1.386.317.588.476 1.274.476 2.058 0 .775-.159 1.465-.476 2.072a3.501 3.501 0 0 1-1.316 1.414 3.478 3.478 0 0 1-1.848.504c-.653 0-1.232-.145-1.736-.434-.495-.299-.873-.667-1.134-1.106v5.054h-1.274v-11.312h1.274v1.414zm5.208 2.394c0-.579-.117-1.083-.35-1.512a2.412 2.412 0 0 0-.952-.98 2.578 2.578 0 0 0-1.302-.336c-.467 0-.9.117-1.302.35-.392.224-.71.555-.952.994-.233.429-.35.929-.35 1.498 0 .579.117 1.087.35 1.526.243.429.56.761.952.994.401.224.835.336 1.302.336.476 0 .91-.112 1.302-.336.401-.233.719-.565.952-.994.233-.439.35-.952.35-1.54zm2.503 0c0-.784.159-1.47.476-2.058a3.462 3.462 0 0 1 1.302-1.386c.56-.327 1.18-.49 1.862-.49.672 0 1.255.145 1.75.434.495.289.863.653 1.106 1.092v-1.4h1.288V139h-1.288v-1.428c-.252.448-.63.821-1.134 1.12-.495.289-1.073.434-1.736.434a3.478 3.478 0 0 1-1.848-.504 3.532 3.532 0 0 1-1.302-1.414c-.317-.607-.476-1.297-.476-2.072zm6.496.014c0-.579-.117-1.083-.35-1.512a2.412 2.412 0 0 0-.952-.98 2.5 2.5 0 0 0-1.302-.35c-.476 0-.91.112-1.302.336a2.44 2.44 0 0 0-.938.98c-.233.429-.35.933-.35 1.512 0 .588.117 1.101.35 1.54.233.429.546.761.938.994.392.224.826.336 1.302.336.476 0 .91-.112 1.302-.336.401-.233.719-.565.952-.994.233-.439.35-.947.35-1.526zm6.157 3.976c-.588 0-1.115-.098-1.582-.294-.467-.205-.835-.485-1.106-.84a2.27 2.27 0 0 1-.448-1.246h1.316c.037.383.215.695.532.938.327.243.751.364 1.274.364.485 0 .868-.107 1.148-.322.28-.215.42-.485.42-.812a.786.786 0 0 0-.448-.742c-.299-.168-.76-.331-1.386-.49a11.408 11.408 0 0 1-1.4-.448 2.66 2.66 0 0 1-.924-.686c-.252-.308-.378-.709-.378-1.204 0-.392.117-.751.35-1.078.233-.327.565-.583.994-.77.43-.196.92-.294 1.47-.294.85 0 1.535.215 2.058.644.523.429.803 1.017.84 1.764h-1.274a1.308 1.308 0 0 0-.49-.966c-.29-.243-.681-.364-1.176-.364-.457 0-.821.098-1.092.294-.27.196-.406.453-.406.77 0 .252.08.462.238.63.168.159.373.289.616.392.252.093.597.201 1.036.322.55.149.999.299 1.344.448.345.14.64.355.882.644.252.289.383.667.392 1.134 0 .42-.117.798-.35 1.134-.233.336-.565.602-.994.798-.42.187-.905.28-1.456.28zm6.152-6.748v4.522c0 .373.08.639.238.798.159.149.434.224.826.224h.938V139h-1.148c-.709 0-1.241-.163-1.596-.49-.354-.327-.532-.863-.532-1.61v-4.522h-.994v-1.05h.994v-1.932h1.274v1.932h2.002v1.05h-2.002zM4.116 163.242c1.064 0 1.983.201 2.758.602a4.091 4.091 0 0 1 1.792 1.694c.42.737.63 1.605.63 2.604 0 .999-.21 1.867-.63 2.604-.41.728-1.008 1.288-1.792 1.68-.775.383-1.694.574-2.758.574H1.078v-9.758h3.038zm0 8.708c1.26 0 2.221-.331 2.884-.994.663-.672.994-1.61.994-2.814 0-1.213-.336-2.161-1.008-2.842-.663-.681-1.62-1.022-2.87-1.022H2.352v7.672h1.764zm6.384-2.814c0-.784.16-1.47.476-2.058a3.463 3.463 0 0 1 1.302-1.386c.56-.327 1.181-.49 1.862-.49.672 0 1.256.145 1.75.434.495.289.864.653 1.106 1.092v-1.4h1.288V173h-1.288v-1.428c-.252.448-.63.821-1.134 1.12-.494.289-1.073.434-1.736.434a3.478 3.478 0 0 1-1.848-.504 3.534 3.534 0 0 1-1.302-1.414c-.317-.607-.476-1.297-.476-2.072zm6.496.014c0-.579-.116-1.083-.35-1.512a2.411 2.411 0 0 0-.952-.98 2.5 2.5 0 0 0-1.302-.35c-.476 0-.91.112-1.302.336a2.44 2.44 0 0 0-.938.98c-.233.429-.35.933-.35 1.512 0 .588.117 1.101.35 1.54.234.429.546.761.938.994.392.224.826.336 1.302.336.476 0 .91-.112 1.302-.336.402-.233.72-.565.952-.994.234-.439.35-.947.35-1.526zm7.18-3.962c.933 0 1.689.285 2.267.854.579.56.868 1.372.868 2.436V173h-1.26v-4.34c0-.765-.191-1.349-.574-1.75-.382-.411-.905-.616-1.568-.616-.672 0-1.208.21-1.61.63-.392.42-.588 1.031-.588 1.834V173h-1.274v-7.672h1.274v1.092a2.542 2.542 0 0 1 1.022-.91c.439-.215.92-.322 1.442-.322zm11.825.14-4.62 11.284h-1.317l1.512-3.696-3.093-7.588h1.413l2.408 6.216 2.38-6.216h1.317zm4.626 7.798a3.964 3.964 0 0 1-1.96-.49 3.566 3.566 0 0 1-1.372-1.386c-.327-.607-.49-1.307-.49-2.1 0-.784.168-1.475.504-2.072a3.504 3.504 0 0 1 1.4-1.386c.588-.327 1.246-.49 1.974-.49s1.386.163 1.974.49a3.44 3.44 0 0 1 1.386 1.372c.346.597.518 1.293.518 2.086 0 .793-.177 1.493-.532 2.1a3.608 3.608 0 0 1-1.414 1.386 4.07 4.07 0 0 1-1.988.49zm0-1.12c.457 0 .887-.107 1.288-.322.401-.215.724-.537.966-.966.252-.429.378-.952.378-1.568 0-.616-.121-1.139-.364-1.568-.242-.429-.56-.747-.952-.952a2.606 2.606 0 0 0-1.274-.322c-.466 0-.896.107-1.288.322-.383.205-.69.523-.924.952-.233.429-.35.952-.35 1.568 0 .625.112 1.153.336 1.582.233.429.541.751.924.966.383.205.803.308 1.26.308zm6.883-9.366V173h-1.274v-10.36h1.274zm6.59 1.442a.838.838 0 0 1-.616-.252.863.863 0 0 1-.238-.616c0-.243.08-.448.238-.616a.838.838 0 0 1 .616-.252c.243 0 .443.084.602.252a.837.837 0 0 1 .252.616.837.837 0 0 1-.252.616.792.792 0 0 1-.602.252zm.63 10.584c0 .681-.173 1.181-.518 1.498-.345.317-.85.476-1.512.476h-.742v-1.078h.532c.355 0 .602-.07.742-.21.15-.14.224-.378.224-.714v-9.31h1.274v9.338zm4.873-1.54c-.588 0-1.116-.098-1.582-.294-.467-.205-.836-.485-1.106-.84a2.27 2.27 0 0 1-.448-1.246h1.316c.037.383.214.695.532.938.326.243.75.364 1.274.364.485 0 .868-.107 1.148-.322.28-.215.42-.485.42-.812a.786.786 0 0 0-.448-.742c-.3-.168-.761-.331-1.386-.49a11.408 11.408 0 0 1-1.4-.448 2.658 2.658 0 0 1-.924-.686c-.252-.308-.378-.709-.378-1.204 0-.392.116-.751.35-1.078.233-.327.564-.583.994-.77.429-.196.919-.294 1.47-.294.849 0 1.535.215 2.058.644.522.429.802 1.017.84 1.764h-1.274a1.308 1.308 0 0 0-.49-.966c-.29-.243-.682-.364-1.176-.364-.458 0-.822.098-1.092.294-.271.196-.406.453-.406.77 0 .252.079.462.238.63.168.159.373.289.616.392.252.093.597.201 1.036.322.55.149.998.299 1.344.448.345.14.639.355.882.644.252.289.382.667.392 1.134 0 .42-.117.798-.35 1.134-.234.336-.565.602-.994.798-.42.187-.906.28-1.456.28zm7.944 0a3.964 3.964 0 0 1-1.96-.49 3.566 3.566 0 0 1-1.372-1.386c-.327-.607-.49-1.307-.49-2.1 0-.784.168-1.475.504-2.072a3.504 3.504 0 0 1 1.4-1.386c.588-.327 1.246-.49 1.974-.49s1.386.163 1.974.49a3.44 3.44 0 0 1 1.386 1.372c.345.597.518 1.293.518 2.086 0 .793-.177 1.493-.532 2.1a3.608 3.608 0 0 1-1.414 1.386 4.07 4.07 0 0 1-1.988.49zm0-1.12c.457 0 .887-.107 1.288-.322.401-.215.723-.537.966-.966.252-.429.378-.952.378-1.568 0-.616-.121-1.139-.364-1.568-.243-.429-.56-.747-.952-.952a2.606 2.606 0 0 0-1.274-.322c-.467 0-.896.107-1.288.322-.383.205-.69.523-.924.952-.233.429-.35.952-.35 1.568 0 .625.112 1.153.336 1.582.233.429.541.751.924.966.383.205.803.308 1.26.308zm9.347-6.818c.933 0 1.69.285 2.268.854.579.56.868 1.372.868 2.436V173h-1.26v-4.34c0-.765-.191-1.349-.574-1.75-.382-.411-.905-.616-1.568-.616-.672 0-1.209.21-1.61.63-.392.42-.588 1.031-.588 1.834V173h-1.274v-7.672h1.274v1.092a2.543 2.543 0 0 1 1.022-.91c.439-.215.92-.322 1.442-.322zm6.491 1.386c.224-.439.541-.779.952-1.022.42-.243.929-.364 1.526-.364v1.316h-.336c-1.428 0-2.142.775-2.142 2.324V173h-1.274v-7.672h1.274v1.246zm7.295 6.552a3.963 3.963 0 0 1-1.96-.49 3.566 3.566 0 0 1-1.372-1.386c-.327-.607-.49-1.307-.49-2.1 0-.784.168-1.475.504-2.072a3.503 3.503 0 0 1 1.4-1.386c.588-.327 1.246-.49 1.974-.49s1.386.163 1.974.49a3.44 3.44 0 0 1 1.386 1.372c.345.597.518 1.293.518 2.086 0 .793-.178 1.493-.532 2.1a3.61 3.61 0 0 1-1.414 1.386c-.598.327-1.26.49-1.988.49zm0-1.12c.457 0 .886-.107 1.288-.322a2.41 2.41 0 0 0 .966-.966c.252-.429.378-.952.378-1.568 0-.616-.121-1.139-.364-1.568-.243-.429-.56-.747-.952-.952a2.606 2.606 0 0 0-1.274-.322c-.467 0-.896.107-1.288.322-.383.205-.69.523-.924.952-.234.429-.35.952-.35 1.568 0 .625.112 1.153.336 1.582.233.429.541.751.924.966.382.205.802.308 1.26.308zm5.133-2.87c0-.784.159-1.47.476-2.058a3.463 3.463 0 0 1 1.302-1.386c.56-.327 1.18-.49 1.862-.49.672 0 1.255.145 1.75.434.495.289.863.653 1.106 1.092v-1.4h1.288V173h-1.288v-1.428c-.252.448-.63.821-1.134 1.12-.495.289-1.073.434-1.736.434a3.478 3.478 0 0 1-1.848-.504 3.534 3.534 0 0 1-1.302-1.414c-.317-.607-.476-1.297-.476-2.072zm6.496.014c0-.579-.117-1.083-.35-1.512a2.412 2.412 0 0 0-.952-.98 2.5 2.5 0 0 0-1.302-.35c-.476 0-.91.112-1.302.336a2.44 2.44 0 0 0-.938.98c-.233.429-.35.933-.35 1.512 0 .588.117 1.101.35 1.54.233.429.546.761.938.994.392.224.826.336 1.302.336.476 0 .91-.112 1.302-.336.401-.233.719-.565.952-.994.233-.439.35-.947.35-1.526zm2.965-.014c0-.784.159-1.47.476-2.058a3.458 3.458 0 0 1 1.302-1.386 3.65 3.65 0 0 1 1.876-.49c.597 0 1.153.14 1.666.42.513.271.905.63 1.176 1.078v-4.06h1.288V173h-1.288v-1.442a3.034 3.034 0 0 1-1.12 1.134c-.495.289-1.073.434-1.736.434a3.551 3.551 0 0 1-1.862-.504 3.528 3.528 0 0 1-1.302-1.414c-.317-.607-.476-1.297-.476-2.072zm6.496.014c0-.579-.117-1.083-.35-1.512a2.412 2.412 0 0 0-.952-.98 2.5 2.5 0 0 0-1.302-.35c-.476 0-.91.112-1.302.336a2.438 2.438 0 0 0-.938.98c-.233.429-.35.933-.35 1.512 0 .588.117 1.101.35 1.54.233.429.546.761.938.994.392.224.826.336 1.302.336.476 0 .91-.112 1.302-.336.401-.233.719-.565.952-.994.233-.439.35-.947.35-1.526zm6.157 3.976c-.588 0-1.116-.098-1.582-.294-.467-.205-.836-.485-1.106-.84a2.267 2.267 0 0 1-.448-1.246h1.316c.037.383.214.695.532.938.326.243.751.364 1.274.364.485 0 .868-.107 1.148-.322.28-.215.42-.485.42-.812a.788.788 0 0 0-.448-.742c-.299-.168-.761-.331-1.386-.49a11.369 11.369 0 0 1-1.4-.448 2.652 2.652 0 0 1-.924-.686c-.252-.308-.378-.709-.378-1.204 0-.392.116-.751.35-1.078.233-.327.564-.583.994-.77.429-.196.919-.294 1.47-.294.849 0 1.535.215 2.058.644.522.429.802 1.017.84 1.764h-1.274a1.31 1.31 0 0 0-.49-.966c-.29-.243-.682-.364-1.176-.364-.458 0-.822.098-1.092.294-.271.196-.406.453-.406.77a.88.88 0 0 0 .238.63c.168.159.373.289.616.392.252.093.597.201 1.036.322.55.149.998.299 1.344.448.345.14.639.355.882.644.252.289.382.667.392 1.134 0 .42-.117.798-.35 1.134-.234.336-.565.602-.994.798-.42.187-.906.28-1.456.28zm12.139-7.938a3.25 3.25 0 0 1 1.568.378c.466.243.83.611 1.092 1.106.27.495.406 1.097.406 1.806V173h-1.26v-4.34c0-.765-.192-1.349-.574-1.75-.383-.411-.906-.616-1.568-.616-.672 0-1.209.21-1.61.63-.392.42-.588 1.031-.588 1.834V173h-1.274v-10.36h1.274v3.78a2.52 2.52 0 0 1 1.036-.91 3.416 3.416 0 0 1 1.498-.322zm8.493 7.938a3.963 3.963 0 0 1-1.96-.49 3.564 3.564 0 0 1-1.372-1.386c-.327-.607-.49-1.307-.49-2.1 0-.784.168-1.475.504-2.072a3.501 3.501 0 0 1 1.4-1.386c.588-.327 1.246-.49 1.974-.49s1.386.163 1.974.49a3.44 3.44 0 0 1 1.386 1.372c.345.597.518 1.293.518 2.086 0 .793-.178 1.493-.532 2.1a3.615 3.615 0 0 1-1.414 1.386c-.598.327-1.26.49-1.988.49zm0-1.12a2.69 2.69 0 0 0 1.288-.322c.401-.215.723-.537.966-.966.252-.429.378-.952.378-1.568 0-.616-.122-1.139-.364-1.568-.243-.429-.56-.747-.952-.952a2.607 2.607 0 0 0-1.274-.322c-.467 0-.896.107-1.288.322-.383.205-.691.523-.924.952-.234.429-.35.952-.35 1.568 0 .625.112 1.153.336 1.582.233.429.541.751.924.966.382.205.802.308 1.26.308zm12.413-6.678V173h-1.274v-1.134c-.243.392-.583.7-1.022.924a3.142 3.142 0 0 1-1.428.322 3.49 3.49 0 0 1-1.61-.364 2.784 2.784 0 0 1-1.134-1.12c-.271-.495-.406-1.097-.406-1.806v-4.494h1.26v4.326c0 .756.191 1.339.574 1.75.383.401.905.602 1.568.602.681 0 1.218-.21 1.61-.63.392-.42.588-1.031.588-1.834v-4.214h1.274zm4.867 7.798a4.052 4.052 0 0 1-1.582-.294c-.467-.205-.835-.485-1.106-.84a2.267 2.267 0 0 1-.448-1.246h1.316c.037.383.215.695.532.938.327.243.751.364 1.274.364.485 0 .868-.107 1.148-.322.28-.215.42-.485.42-.812a.786.786 0 0 0-.448-.742c-.299-.168-.761-.331-1.386-.49a11.425 11.425 0 0 1-1.4-.448 2.652 2.652 0 0 1-.924-.686c-.252-.308-.378-.709-.378-1.204 0-.392.117-.751.35-1.078.233-.327.565-.583.994-.77.429-.196.919-.294 1.47-.294.849 0 1.535.215 2.058.644.523.429.803 1.017.84 1.764h-1.274a1.307 1.307 0 0 0-.49-.966c-.289-.243-.681-.364-1.176-.364-.457 0-.821.098-1.092.294-.271.196-.406.453-.406.77a.88.88 0 0 0 .238.63c.168.159.373.289.616.392.252.093.597.201 1.036.322.551.149.999.299 1.344.448.345.14.639.355.882.644.252.289.383.667.392 1.134 0 .42-.117.798-.35 1.134-.233.336-.565.602-.994.798-.42.187-.905.28-1.456.28zm11.598-4.256c0 .243-.014.499-.042.77h-6.132c.047.756.304 1.349.77 1.778.476.42 1.05.63 1.722.63.551 0 1.008-.126 1.372-.378.374-.261.635-.607.784-1.036h1.372a3.332 3.332 0 0 1-1.232 1.806c-.616.457-1.381.686-2.296.686-.728 0-1.381-.163-1.96-.49a3.503 3.503 0 0 1-1.344-1.386c-.326-.607-.49-1.307-.49-2.1 0-.793.159-1.489.476-2.086a3.315 3.315 0 0 1 1.33-1.372c.579-.327 1.242-.49 1.988-.49.728 0 1.372.159 1.932.476.56.317.99.756 1.288 1.316.308.551.462 1.176.462 1.876zm-1.316-.266c0-.485-.107-.901-.322-1.246a2.015 2.015 0 0 0-.882-.798 2.626 2.626 0 0 0-1.218-.28c-.644 0-1.194.205-1.652.616-.448.411-.704.98-.77 1.708h4.844zM4.424 207.126a3.964 3.964 0 0 1-1.96-.49 3.566 3.566 0 0 1-1.372-1.386c-.327-.607-.49-1.307-.49-2.1 0-.784.168-1.475.504-2.072a3.503 3.503 0 0 1 1.4-1.386c.588-.327 1.246-.49 1.974-.49s1.386.163 1.974.49a3.44 3.44 0 0 1 1.386 1.372c.345.597.518 1.293.518 2.086 0 .793-.177 1.493-.532 2.1a3.609 3.609 0 0 1-1.414 1.386 4.07 4.07 0 0 1-1.988.49zm0-1.12c.457 0 .887-.107 1.288-.322a2.41 2.41 0 0 0 .966-.966c.252-.429.378-.952.378-1.568 0-.616-.121-1.139-.364-1.568-.243-.429-.56-.747-.952-.952a2.606 2.606 0 0 0-1.274-.322c-.467 0-.896.107-1.288.322-.383.205-.69.523-.924.952-.233.429-.35.952-.35 1.568 0 .625.112 1.153.336 1.582.233.429.541.751.924.966.383.205.803.308 1.26.308zm12.413-6.678V207h-1.274v-1.134c-.243.392-.583.7-1.022.924-.43.215-.905.322-1.428.322a3.49 3.49 0 0 1-1.61-.364 2.784 2.784 0 0 1-1.134-1.12c-.27-.495-.406-1.097-.406-1.806v-4.494h1.26v4.326c0 .756.191 1.339.574 1.75.383.401.905.602 1.568.602.681 0 1.218-.21 1.61-.63.392-.42.588-1.031.588-1.834v-4.214h1.274zm3.425 1.246c.224-.439.541-.779.952-1.022.42-.243.929-.364 1.526-.364v1.316h-.336c-1.428 0-2.142.775-2.142 2.324V207h-1.274v-7.672h1.274v1.246zm7.687-1.386c.933 0 1.69.285 2.268.854.579.56.868 1.372.868 2.436V207h-1.26v-4.34c0-.765-.191-1.349-.574-1.75-.383-.411-.905-.616-1.568-.616-.672 0-1.209.21-1.61.63-.392.42-.588 1.031-.588 1.834V207H24.21v-7.672h1.274v1.092a2.543 2.543 0 0 1 1.022-.91c.438-.215.92-.322 1.442-.322zm12.217 3.682c0 .243-.014.499-.042.77h-6.132c.047.756.303 1.349.77 1.778.476.42 1.05.63 1.722.63.55 0 1.008-.126 1.372-.378.373-.261.635-.607.784-1.036h1.372a3.334 3.334 0 0 1-1.232 1.806c-.616.457-1.381.686-2.296.686-.728 0-1.381-.163-1.96-.49a3.499 3.499 0 0 1-1.344-1.386c-.327-.607-.49-1.307-.49-2.1 0-.793.159-1.489.476-2.086a3.309 3.309 0 0 1 1.33-1.372c.579-.327 1.241-.49 1.988-.49.728 0 1.372.159 1.932.476.56.317.99.756 1.288 1.316.308.551.462 1.176.462 1.876zm-1.316-.266c0-.485-.107-.901-.322-1.246a2.023 2.023 0 0 0-.882-.798 2.626 2.626 0 0 0-1.218-.28c-.644 0-1.195.205-1.652.616-.448.411-.705.98-.77 1.708h4.844zm5.713 4.522c-.588 0-1.115-.098-1.582-.294-.466-.205-.835-.485-1.105-.84a2.27 2.27 0 0 1-.448-1.246h1.316c.037.383.214.695.532.938.326.243.75.364 1.273.364.486 0 .868-.107 1.148-.322.28-.215.42-.485.42-.812a.786.786 0 0 0-.447-.742c-.3-.168-.761-.331-1.387-.49a11.408 11.408 0 0 1-1.4-.448 2.66 2.66 0 0 1-.924-.686c-.252-.308-.378-.709-.378-1.204 0-.392.117-.751.35-1.078.234-.327.565-.583.995-.77.429-.196.919-.294 1.47-.294.849 0 1.535.215 2.057.644.523.429.803 1.017.84 1.764H46.02a1.308 1.308 0 0 0-.49-.966c-.29-.243-.682-.364-1.177-.364-.457 0-.82.098-1.092.294-.27.196-.406.453-.406.77 0 .252.08.462.239.63.167.159.373.289.615.392.252.093.598.201 1.036.322.551.149 1 .299 1.345.448.345.14.639.355.881.644.253.289.383.667.393 1.134 0 .42-.117.798-.35 1.134-.234.336-.565.602-.995.798-.42.187-.905.28-1.456.28zm6.153-6.748v4.522c0 .373.08.639.238.798.159.149.434.224.826.224h.938V207H51.57c-.71 0-1.241-.163-1.596-.49-.355-.327-.532-.863-.532-1.61v-4.522h-.994v-1.05h.994v-1.932h1.274v1.932h2.002v1.05h-2.002zm6.802 2.772c0-.793.159-1.484.476-2.072a3.432 3.432 0 0 1 1.316-1.386c.57-.327 1.218-.49 1.946-.49.943 0 1.717.229 2.324.686.616.457 1.022 1.092 1.218 1.904h-1.372a1.959 1.959 0 0 0-.77-1.106c-.373-.271-.84-.406-1.4-.406-.728 0-1.316.252-1.764.756-.448.495-.672 1.199-.672 2.114 0 .924.224 1.638.672 2.142.448.504 1.036.756 1.764.756.56 0 1.027-.131 1.4-.392s.63-.635.77-1.12h1.372c-.205.784-.616 1.414-1.232 1.89-.616.467-1.386.7-2.31.7-.728 0-1.377-.163-1.946-.49a3.432 3.432 0 0 1-1.316-1.386c-.317-.597-.476-1.297-.476-2.1zm15.98-.28c0 .243-.014.499-.042.77h-6.132c.047.756.303 1.349.77 1.778.476.42 1.05.63 1.722.63.55 0 1.008-.126 1.372-.378.373-.261.635-.607.784-1.036h1.372a3.334 3.334 0 0 1-1.232 1.806c-.616.457-1.381.686-2.296.686-.728 0-1.381-.163-1.96-.49a3.499 3.499 0 0 1-1.344-1.386c-.327-.607-.49-1.307-.49-2.1 0-.793.159-1.489.476-2.086a3.31 3.31 0 0 1 1.33-1.372c.579-.327 1.241-.49 1.988-.49.728 0 1.372.159 1.932.476.56.317.99.756 1.288 1.316.308.551.462 1.176.462 1.876zm-1.316-.266c0-.485-.107-.901-.322-1.246a2.022 2.022 0 0 0-.882-.798 2.626 2.626 0 0 0-1.218-.28c-.644 0-1.195.205-1.652.616-.448.411-.705.98-.77 1.708h4.844zm6.736-3.416c.933 0 1.689.285 2.268.854.578.56.868 1.372.868 2.436V207h-1.26v-4.34c0-.765-.192-1.349-.574-1.75-.383-.411-.906-.616-1.568-.616-.672 0-1.21.21-1.61.63-.392.42-.588 1.031-.588 1.834V207H75.18v-7.672h1.274v1.092a2.542 2.542 0 0 1 1.022-.91c.438-.215.919-.322 1.442-.322zm6.77 1.19v4.522c0 .373.08.639.239.798.158.149.434.224.826.224h.938V207h-1.148c-.71 0-1.242-.163-1.596-.49-.355-.327-.532-.863-.532-1.61v-4.522h-.994v-1.05h.994v-1.932h1.274v1.932h2.002v1.05h-2.002zm10.546 2.492c0 .243-.014.499-.042.77H90.06c.047.756.304 1.349.77 1.778.476.42 1.05.63 1.722.63.55 0 1.008-.126 1.372-.378.374-.261.635-.607.784-1.036h1.372a3.335 3.335 0 0 1-1.232 1.806c-.616.457-1.381.686-2.296.686-.728 0-1.381-.163-1.96-.49a3.497 3.497 0 0 1-1.344-1.386c-.326-.607-.49-1.307-.49-2.1 0-.793.159-1.489.476-2.086a3.308 3.308 0 0 1 1.33-1.372c.579-.327 1.242-.49 1.988-.49.728 0 1.372.159 1.932.476.56.317.99.756 1.288 1.316.308.551.462 1.176.462 1.876zm-1.316-.266c0-.485-.107-.901-.322-1.246a2.023 2.023 0 0 0-.882-.798 2.626 2.626 0 0 0-1.218-.28c-.644 0-1.194.205-1.652.616-.448.411-.704.98-.77 1.708h4.844zm4.272-2.03c.224-.439.541-.779.952-1.022.42-.243.929-.364 1.526-.364v1.316h-.336c-1.428 0-2.142.775-2.142 2.324V207h-1.274v-7.672h1.274v1.246z" fill="#626060"/>
    <path stroke="#AFAFAF" d="M197.5 31v188"/>
    <path stroke="#AFAFAF" stroke-dasharray="2 2" d="M291.5 31v188"/>
    <path fill="url(#1c8kigq2wa)" fill-opacity=".8" d="M197 58h187v13H197z"/>
    <path d="M396.164 64.104c.768-.64 1.38-1.172 1.836-1.596.456-.432.836-.88 1.14-1.344.304-.464.456-.92.456-1.368 0-.408-.096-.728-.288-.96-.192-.232-.488-.348-.888-.348s-.708.136-.924.408c-.216.264-.328.628-.336 1.092h-1.632c.032-.96.316-1.688.852-2.184.544-.496 1.232-.744 2.064-.744.912 0 1.612.244 2.1.732.488.48.732 1.116.732 1.908a3.46 3.46 0 0 1-.504 1.788 7.222 7.222 0 0 1-1.152 1.488c-.432.416-.996.92-1.692 1.512h3.54v1.392h-5.928v-1.248l.624-.528zm12.243-5.4h-3.888v2.052c.168-.208.408-.376.72-.504.312-.136.644-.204.996-.204.64 0 1.164.14 1.572.42.408.28.704.64.888 1.08.184.432.276.896.276 1.392 0 .92-.264 1.66-.792 2.22-.52.56-1.264.84-2.232.84-.912 0-1.64-.228-2.184-.684-.544-.456-.852-1.052-.924-1.788h1.632a1.3 1.3 0 0 0 .48.768c.256.192.58.288.972.288.472 0 .828-.148 1.068-.444.24-.296.36-.688.36-1.176 0-.496-.124-.872-.372-1.128-.24-.264-.596-.396-1.068-.396-.336 0-.616.084-.84.252a1.375 1.375 0 0 0-.48.672h-1.608v-5.136h5.424v1.476zm1.77 5.592v-1.32l3.924-5.616h1.956v5.472h1.056v1.464h-1.056V66h-1.68v-1.704h-4.2zm4.308-5.136-2.46 3.672h2.46V59.16zM361.432 97.8v-1.548h2.892V105h-1.728v-7.2h-1.164zm6.496 4.74c.064.352.208.624.432.816.232.184.54.276.924.276.496 0 .856-.204 1.08-.612.224-.416.336-1.112.336-2.088a1.81 1.81 0 0 1-.78.6 2.627 2.627 0 0 1-1.068.216c-.512 0-.976-.104-1.392-.312a2.408 2.408 0 0 1-.972-.948c-.24-.424-.36-.936-.36-1.536 0-.888.264-1.592.792-2.112.528-.528 1.248-.792 2.16-.792 1.136 0 1.936.364 2.4 1.092.472.728.708 1.824.708 3.288 0 1.04-.092 1.892-.276 2.556-.176.664-.484 1.168-.924 1.512-.432.344-1.024.516-1.776.516-.592 0-1.096-.112-1.512-.336a2.545 2.545 0 0 1-.96-.9 2.857 2.857 0 0 1-.372-1.236h1.56zm1.272-2.16c.416 0 .744-.128.984-.384s.36-.6.36-1.032c0-.472-.128-.836-.384-1.092-.248-.264-.588-.396-1.02-.396-.432 0-.776.136-1.032.408-.248.264-.372.616-.372 1.056 0 .424.12.772.36 1.044.248.264.616.396 1.104.396zm10.175-2.676h-3.888v2.052c.168-.208.408-.376.72-.504.312-.136.644-.204.996-.204.64 0 1.164.14 1.572.42.408.28.704.64.888 1.08.184.432.276.896.276 1.392 0 .92-.264 1.66-.792 2.22-.52.56-1.264.84-2.232.84-.912 0-1.64-.228-2.184-.684-.544-.456-.852-1.052-.924-1.788h1.632a1.3 1.3 0 0 0 .48.768c.256.192.58.288.972.288.472 0 .828-.148 1.068-.444.24-.296.36-.688.36-1.176 0-.496-.124-.872-.372-1.128-.24-.264-.596-.396-1.068-.396-.336 0-.616.084-.84.252a1.375 1.375 0 0 0-.48.672h-1.608v-5.136h5.424v1.476zM301.58 140.54c.064.352.208.624.432.816.232.184.54.276.924.276.496 0 .856-.204 1.08-.612.224-.416.336-1.112.336-2.088a1.81 1.81 0 0 1-.78.6 2.627 2.627 0 0 1-1.068.216c-.512 0-.976-.104-1.392-.312a2.408 2.408 0 0 1-.972-.948c-.24-.424-.36-.936-.36-1.536 0-.888.264-1.592.792-2.112.528-.528 1.248-.792 2.16-.792 1.136 0 1.936.364 2.4 1.092.472.728.708 1.824.708 3.288 0 1.04-.092 1.892-.276 2.556-.176.664-.484 1.168-.924 1.512-.432.344-1.024.516-1.776.516-.592 0-1.096-.112-1.512-.336a2.545 2.545 0 0 1-.96-.9 2.857 2.857 0 0 1-.372-1.236h1.56zm1.272-2.16c.416 0 .744-.128.984-.384s.36-.6.36-1.032c0-.472-.128-.836-.384-1.092-.248-.264-.588-.396-1.02-.396-.432 0-.776.136-1.032.408-.248.264-.372.616-.372 1.056 0 .424.12.772.36 1.044.248.264.616.396 1.104.396zm4.296.132c0-1.384.248-2.468.744-3.252.504-.784 1.336-1.176 2.496-1.176s1.988.392 2.484 1.176c.504.784.756 1.868.756 3.252 0 1.392-.252 2.484-.756 3.276-.496.792-1.324 1.188-2.484 1.188s-1.992-.396-2.496-1.188c-.496-.792-.744-1.884-.744-3.276zm4.824 0c0-.592-.04-1.088-.12-1.488-.072-.408-.224-.74-.456-.996-.224-.256-.56-.384-1.008-.384-.448 0-.788.128-1.02.384-.224.256-.376.588-.456.996-.072.4-.108.896-.108 1.488 0 .608.036 1.12.108 1.536.072.408.224.74.456.996.232.248.572.372 1.02.372.448 0 .788-.124 1.02-.372.232-.256.384-.588.456-.996.072-.416.108-.928.108-1.536zM275.204 205.524 272.012 213h-1.704l3.216-7.284h-4.104v-1.44h5.784v1.248zm2.47 2.844c-.8-.416-1.2-1.06-1.2-1.932 0-.432.108-.824.324-1.176.224-.36.556-.644.996-.852.448-.216.992-.324 1.632-.324.64 0 1.18.108 1.62.324.448.208.78.492.996.852.224.352.336.744.336 1.176 0 .44-.108.828-.324 1.164a2.23 2.23 0 0 1-.864.768c.44.192.784.472 1.032.84s.372.804.372 1.308c0 .544-.14 1.02-.42 1.428-.272.4-.648.708-1.128.924-.48.216-1.02.324-1.62.324-.6 0-1.14-.108-1.62-.324a2.733 2.733 0 0 1-1.128-.924c-.272-.408-.408-.884-.408-1.428 0-.504.124-.94.372-1.308a2.235 2.235 0 0 1 1.032-.84zm3.072-1.692c0-.392-.12-.696-.36-.912-.232-.216-.552-.324-.96-.324-.4 0-.72.108-.96.324-.232.216-.348.524-.348.924 0 .36.12.648.36.864.248.216.564.324.948.324s.7-.108.948-.324c.248-.224.372-.516.372-.876zm-1.32 2.424c-.456 0-.828.116-1.116.348-.28.232-.42.564-.42.996 0 .4.136.728.408.984.28.248.656.372 1.128.372.472 0 .844-.128 1.116-.384.272-.256.408-.58.408-.972 0-.424-.14-.752-.42-.984-.28-.24-.648-.36-1.104-.36zM438.164 175.104c.768-.64 1.38-1.172 1.836-1.596.456-.432.836-.88 1.14-1.344.304-.464.456-.92.456-1.368 0-.408-.096-.728-.288-.96-.192-.232-.488-.348-.888-.348s-.708.136-.924.408c-.216.264-.328.628-.336 1.092h-1.632c.032-.96.316-1.688.852-2.184.544-.496 1.232-.744 2.064-.744.912 0 1.612.244 2.1.732.488.48.732 1.116.732 1.908a3.46 3.46 0 0 1-.504 1.788 7.222 7.222 0 0 1-1.152 1.488c-.432.416-.996.92-1.692 1.512h3.54v1.392h-5.928v-1.248l.624-.528zm10.899-4.668c-.08-.336-.22-.588-.42-.756-.192-.168-.472-.252-.84-.252-.552 0-.96.224-1.224.672-.256.44-.388 1.16-.396 2.16a1.91 1.91 0 0 1 .84-.744 2.646 2.646 0 0 1 1.2-.276c.52 0 .98.112 1.38.336.4.224.712.552.936.984.224.424.336.936.336 1.536 0 .568-.116 1.076-.348 1.524-.224.44-.556.784-.996 1.032-.44.248-.964.372-1.572.372-.832 0-1.488-.184-1.968-.552-.472-.368-.804-.88-.996-1.536-.184-.664-.276-1.48-.276-2.448 0-1.464.252-2.568.756-3.312.504-.752 1.3-1.128 2.388-1.128.84 0 1.492.228 1.956.684.464.456.732 1.024.804 1.704h-1.56zm-1.224 2.184c-.424 0-.78.124-1.068.372-.288.248-.432.608-.432 1.08 0 .472.132.844.396 1.116.272.272.652.408 1.14.408.432 0 .772-.132 1.02-.396.256-.264.384-.62.384-1.068 0-.464-.124-.832-.372-1.104-.24-.272-.596-.408-1.068-.408zm9.931-3.096L454.578 177h-1.704l3.216-7.284h-4.104v-1.44h5.784v1.248z" fill="#000"/>
    <path fill="url(#rmwz4dm6rb)" fill-opacity=".8" d="M197 94h154v13H197z"/>
    <path fill="url(#rw7ywohgrc)" fill-opacity=".8" d="M197 130h85v13h-85z"/>
    <path fill="url(#x3pzk0znod)" fill-opacity=".8" d="M197 166h232v13H197z"/>
    <path fill="url(#5fnesoi40e)" fill-opacity=".8" d="M197 202h66v13h-66z"/>
    <path d="M286.976 10.936h-2.224L284.384 12h-1.176l2.008-5.592h1.304L288.528 12h-1.184l-.368-1.064zm-.304-.896-.808-2.336-.808 2.336h1.616zm4.455.928 1.12-3.4h1.192L291.799 12h-1.36l-1.632-4.432h1.2l1.12 3.4zm4.677-3.472c.33 0 .621.067.872.2.25.128.448.296.592.504v-.632h1.128v4.464c0 .41-.083.776-.248 1.096a1.819 1.819 0 0 1-.744.768c-.331.192-.731.288-1.2.288-.63 0-1.147-.147-1.552-.44a1.634 1.634 0 0 1-.68-1.2h1.112a.813.813 0 0 0 .376.48c.197.123.434.184.712.184.325 0 .589-.099.792-.296.202-.192.304-.485.304-.88v-.688a1.693 1.693 0 0 1-.6.52 1.757 1.757 0 0 1-.864.208c-.374 0-.715-.096-1.024-.288a2.032 2.032 0 0 1-.736-.808 2.666 2.666 0 0 1-.264-1.208c0-.448.088-.845.264-1.192a2 2 0 0 1 .728-.8c.309-.187.653-.28 1.032-.28zm1.464 2.288a1.42 1.42 0 0 0-.16-.696 1.099 1.099 0 0 0-.432-.448 1.134 1.134 0 0 0-.584-.16c-.208 0-.4.05-.576.152-.176.101-.32.25-.432.448-.107.192-.16.421-.16.688 0 .267.053.501.16.704.112.197.256.35.432.456.181.107.373.16.576.16.208 0 .402-.05.584-.152.181-.107.325-.256.432-.448.106-.197.16-.432.16-.704z" fill="#626060"/>
    <defs>
        <linearGradient id="1c8kigq2wa" x1="197" y1="65" x2="384" y2="65" gradientUnits="userSpaceOnUse">
            <stop stop-color="#060606"/>
            <stop offset="1" stop-color="#26A7F0"/>
        </linearGradient>
        <linearGradient id="rmwz4dm6rb" x1="197" y1="101" x2="351" y2="101" gradientUnits="userSpaceOnUse">
            <stop stop-color="#060606"/>
            <stop offset="1" stop-color="#26A7F0"/>
        </linearGradient>
        <linearGradient id="rw7ywohgrc" x1="197" y1="137" x2="282" y2="137" gradientUnits="userSpaceOnUse">
            <stop stop-color="#060606"/>
            <stop offset="1" stop-color="#26A7F0"/>
        </linearGradient>
        <linearGradient id="x3pzk0znod" x1="197" y1="173" x2="429" y2="173" gradientUnits="userSpaceOnUse">
            <stop stop-color="#060606"/>
            <stop offset="1" stop-color="#26A7F0"/>
        </linearGradient>
        <linearGradient id="5fnesoi40e" x1="197" y1="209" x2="263" y2="209" gradientUnits="userSpaceOnUse">
            <stop stop-color="#060606"/>
            <stop offset="1" stop-color="#26A7F0"/>
        </linearGradient>
    </defs>
</svg>
