<svg width="23" height="23" viewBox="0 0 23 23" fill="none" xmlns="http://www.w3.org/2000/svg">
    <path fill-rule="evenodd" clip-rule="evenodd" d="M11.5 1.438a10.062 10.062 0 1 0 0 20.124 10.062 10.062 0 0 0 0-20.125zM11.5 0a11.5 11.5 0 1 0 0 23 11.5 11.5 0 0 0 0-23z" fill="#fff"/>
    <path fill-rule="evenodd" clip-rule="evenodd" d="M17.25 11.5a.719.719 0 0 0-.719-.718H8.204l3.086-3.085a.718.718 0 0 0 0-1.018.72.72 0 0 0-1.018 0L5.96 10.992a.72.72 0 0 0 0 1.018l4.312 4.312a.72.72 0 1 0 1.018-1.018L8.204 12.22h8.327a.719.719 0 0 0 .719-.718z" fill="#fff"/>
</svg>
