<svg width="18" height="18" viewBox="0 0 18 18" fill="none" xmlns="http://www.w3.org/2000/svg">
    <path fill-rule="evenodd" clip-rule="evenodd" d="M13.5 0a.9.9 0 0 1 .9.9v.9h.9A2.7 2.7 0 0 1 18 4.5v10.8a2.7 2.7 0 0 1-2.7 2.7H2.7A2.7 2.7 0 0 1 0 15.3V4.5a2.7 2.7 0 0 1 2.7-2.7h.9V.9a.9.9 0 1 1 1.8 0v.9h7.2V.9a.9.9 0 0 1 .9-.9zm2.7 9H1.8v6.3a.9.9 0 0 0 .9.9h12.6a.9.9 0 0 0 .9-.9V9zm-2.7 1.8a.9.9 0 0 1 .9.9v1.8a.9.9 0 0 1-.9.9h-1.8a.9.9 0 0 1-.9-.9v-1.8a.9.9 0 0 1 .9-.9h1.8zM3.6 3.6h-.9a.9.9 0 0 0-.9.9v2.7h14.4V4.5a.9.9 0 0 0-.9-.9h-.9v.9a.9.9 0 1 1-1.8 0v-.9H5.4v.9a.9.9 0 1 1-1.8 0v-.9z" fill="#fff"/>
</svg>
