<svg width="24" height="28" viewBox="0 0 24 28" fill="none" xmlns="http://www.w3.org/2000/svg">
    <path d="m6.433 11.196.067-.072V3.526c0-1.36 1.026-2.435 2.25-2.435h12.5c1.224 0 2.25 1.075 2.25 2.435V26.35c0 .621-.463 1.092-1 1.092h-20c-.535 0-1-.471-1-1.092v-6.963h-.25c-.393 0-.762-.255-.922-.669-.16-.415-.069-.89.221-1.203l5.884-6.319zm4.817 14.061h.25V17.41l-.067-.072-3.75-4.027-.183-.197-.183.197-3.75 4.027-.067.072v7.848h7.75zm10 0h.25V3.277h-13V11.123l.067.072 5.884 6.32c.29.311.381.787.221 1.203-.158.413-.528.668-.922.668h-.25v5.87h7.75z" fill="#A3A3A3" stroke="#A3A3A3" stroke-width=".5"/>
    <path d="M11.5 6.461h2v2.185h-2V6.461zm5 0h2v2.185h-2V6.461zm0 5.412h2v2.144h-2v-2.144zm0 5.329h2v2.185h-2v-2.185zm-10 1.342h2v2.185h-2v-2.185z" fill="#A3A3A3" stroke="#A3A3A3" stroke-width=".5"/>
</svg>
