<svg width="741" height="212" viewBox="0 0 741 212" fill="none" xmlns="http://www.w3.org/2000/svg">
    <path stroke="#D9D9D9" stroke-dasharray="2 2" d="M30 41.5h711M30 4.5h711M30 78.5h711M30 115.5h711M30 152.5h711"/>
    <path stroke="#A3A3A3" d="M30 189.5h711"/>
    <path fill="url(#v96zd0jk2a)" d="M54 46h15v144H54z"/>
    <path fill="url(#1cnlh6immb)" d="M39 79h15v111H39z"/>
    <path fill="url(#z1ik12e9pc)" d="M186 93h15v97h-15z"/>
    <path fill="url(#ufrxcwjkvd)" d="M171 114h15v76h-15z"/>
    <path fill="url(#l0wpc35mie)" d="M318 74h15v116h-15z"/>
    <path fill="url(#acyacwpgof)" d="M303 29h15v161h-15z"/>
    <path fill="url(#b4vzpe0icg)" d="M450 86h15v104h-15z"/>
    <path fill="url(#e75uuvu0sh)" d="M435 114h15v76h-15z"/>
    <path fill="url(#fg2sotdq4i)" d="M582 46h15v144h-15z"/>
    <path fill="url(#46rilccftj)" d="M567 114h15v76h-15z"/>
    <path fill="url(#6muczy3ixk)" d="M714 45h15v144h-15z"/>
    <path fill="url(#hla257y4wl)" d="M699 23h15v166h-15z"/>
    <path d="M21.355 188.008c0-.923.155-1.643.464-2.16.315-.523.853-.784 1.616-.784.763 0 1.299.261 1.608.784.315.517.472 1.237.472 2.16 0 .933-.157 1.664-.472 2.192-.31.523-.845.784-1.608.784-.763 0-1.301-.261-1.616-.784-.31-.528-.464-1.259-.464-2.192zm3.264 0c0-.432-.03-.797-.088-1.096a1.421 1.421 0 0 0-.336-.728c-.17-.192-.424-.288-.76-.288s-.59.096-.76.288c-.17.187-.285.429-.344.728-.053.299-.08.664-.08 1.096 0 .448.027.824.08 1.128.053.304.165.549.336.736.176.187.432.28.768.28s.59-.093.76-.28c.176-.187.29-.432.344-.736.053-.304.08-.68.08-1.128zM14.88 151.952H12.2v1.592c.113-.149.278-.275.497-.376.224-.101.461-.152.712-.152.448 0 .81.096 1.088.288.282.192.482.435.6.728.122.293.184.603.184.928 0 .395-.078.747-.232 1.056a1.67 1.67 0 0 1-.68.72c-.299.176-.667.264-1.104.264-.582 0-1.048-.144-1.4-.432a1.749 1.749 0 0 1-.632-1.144h.888c.058.251.189.451.392.6.202.144.456.216.76.216.378 0 .661-.115.848-.344.192-.229.288-.533.288-.912 0-.384-.096-.677-.288-.88-.192-.208-.475-.312-.848-.312-.262 0-.483.067-.664.2a1.084 1.084 0 0 0-.384.528h-.864v-3.368h3.52v.8zm1.35 2.056c0-.923.155-1.643.464-2.16.315-.523.853-.784 1.616-.784.763 0 1.299.261 1.608.784.315.517.472 1.237.472 2.16 0 .933-.157 1.664-.472 2.192-.31.523-.845.784-1.608.784-.763 0-1.301-.261-1.616-.784-.31-.528-.464-1.259-.464-2.192zm3.264 0c0-.432-.03-.797-.088-1.096a1.421 1.421 0 0 0-.336-.728c-.17-.192-.424-.288-.76-.288s-.59.096-.76.288c-.17.187-.285.429-.344.728-.053.299-.08.664-.08 1.096 0 .448.027.824.08 1.128.053.304.165.549.336.736.176.187.432.28.768.28s.59-.093.76-.28c.176-.187.29-.432.344-.736.053-.304.08-.68.08-1.128zm1.861 0c0-.923.155-1.643.464-2.16.315-.523.853-.784 1.616-.784.763 0 1.299.261 1.608.784.315.517.472 1.237.472 2.16 0 .933-.157 1.664-.472 2.192-.31.523-.845.784-1.608.784-.763 0-1.301-.261-1.616-.784-.31-.528-.464-1.259-.464-2.192zm3.264 0c0-.432-.03-.797-.088-1.096a1.421 1.421 0 0 0-.336-.728c-.17-.192-.424-.288-.76-.288s-.59.096-.76.288c-.17.187-.285.429-.344.728-.053.299-.08.664-.08 1.096 0 .448.027.824.08 1.128.053.304.165.549.336.736.176.187.432.28.768.28s.59-.093.76-.28c.176-.187.29-.432.344-.736.053-.304.08-.68.08-1.128zM8.188 114v-.832h1.664V119h-.92v-5h-.744zm2.917 2.008c0-.923.155-1.643.464-2.16.315-.523.853-.784 1.616-.784.763 0 1.299.261 1.608.784.315.517.472 1.237.472 2.16 0 .933-.157 1.664-.472 2.192-.31.523-.845.784-1.608.784-.763 0-1.301-.261-1.616-.784-.31-.528-.464-1.259-.464-2.192zm3.264 0c0-.432-.03-.797-.088-1.096a1.421 1.421 0 0 0-.336-.728c-.17-.192-.424-.288-.76-.288s-.59.096-.76.288c-.17.187-.285.429-.344.728-.053.299-.08.664-.08 1.096 0 .448.027.824.08 1.128.053.304.165.549.336.736.176.187.432.28.768.28s.59-.093.76-.28c.176-.187.29-.432.344-.736.053-.304.08-.68.08-1.128zm1.861 0c0-.923.155-1.643.464-2.16.315-.523.853-.784 1.616-.784.763 0 1.299.261 1.608.784.315.517.472 1.237.472 2.16 0 .933-.157 1.664-.472 2.192-.31.523-.845.784-1.608.784-.763 0-1.301-.261-1.616-.784-.31-.528-.464-1.259-.464-2.192zm3.264 0c0-.432-.03-.797-.088-1.096a1.421 1.421 0 0 0-.336-.728c-.17-.192-.424-.288-.76-.288s-.59.096-.76.288c-.17.187-.285.429-.344.728-.053.299-.08.664-.08 1.096 0 .448.027.824.08 1.128.053.304.165.549.336.736.176.187.432.28.768.28s.59-.093.76-.28c.176-.187.29-.432.344-.736.053-.304.08-.68.08-1.128zm1.861 0c0-.923.155-1.643.464-2.16.315-.523.853-.784 1.616-.784.763 0 1.299.261 1.608.784.315.517.472 1.237.472 2.16 0 .933-.157 1.664-.472 2.192-.31.523-.845.784-1.608.784-.763 0-1.301-.261-1.616-.784-.31-.528-.464-1.259-.464-2.192zm3.264 0c0-.432-.03-.797-.088-1.096a1.421 1.421 0 0 0-.336-.728c-.17-.192-.424-.288-.76-.288s-.59.096-.76.288c-.17.187-.285.429-.344.728-.053.299-.08.664-.08 1.096 0 .448.027.824.08 1.128.053.304.165.549.336.736.176.187.432.28.768.28s.59-.093.76-.28c.176-.187.29-.432.344-.736.053-.304.08-.68.08-1.128zM8.204 78v-.832h1.664V83h-.92v-5h-.744zm6.677-.048H12.2v1.592c.112-.15.277-.275.496-.376.224-.101.461-.152.712-.152.448 0 .81.096 1.088.288.282.192.482.435.6.728.122.293.184.603.184.928 0 .395-.078.747-.232 1.056a1.67 1.67 0 0 1-.68.72c-.299.176-.667.264-1.104.264-.582 0-1.048-.144-1.4-.432a1.75 1.75 0 0 1-.632-1.144h.888c.058.25.189.45.392.6.202.144.456.216.76.216.378 0 .661-.115.848-.344.192-.23.288-.533.288-.912 0-.384-.096-.677-.288-.88-.192-.208-.475-.312-.848-.312a1.09 1.09 0 0 0-.664.2 1.084 1.084 0 0 0-.384.528h-.864v-3.368h3.52v.8zm1.349 2.056c0-.923.155-1.643.464-2.16.315-.523.853-.784 1.616-.784.763 0 1.299.261 1.608.784.315.517.472 1.237.472 2.16 0 .933-.157 1.664-.472 2.192-.31.523-.845.784-1.608.784-.763 0-1.301-.261-1.616-.784-.31-.528-.464-1.259-.464-2.192zm3.264 0c0-.432-.03-.797-.088-1.096a1.421 1.421 0 0 0-.336-.728c-.17-.192-.424-.288-.76-.288s-.59.096-.76.288c-.17.187-.285.43-.344.728-.053.299-.08.664-.08 1.096 0 .448.027.824.08 1.128.053.304.165.55.336.736.176.187.432.28.768.28s.59-.093.76-.28c.176-.187.29-.432.344-.736.053-.304.08-.68.08-1.128zm1.861 0c0-.923.155-1.643.464-2.16.315-.523.853-.784 1.616-.784.763 0 1.299.261 1.608.784.315.517.472 1.237.472 2.16 0 .933-.157 1.664-.472 2.192-.31.523-.845.784-1.608.784-.763 0-1.301-.261-1.616-.784-.31-.528-.464-1.259-.464-2.192zm3.264 0c0-.432-.03-.797-.088-1.096a1.421 1.421 0 0 0-.336-.728c-.17-.192-.424-.288-.76-.288s-.59.096-.76.288c-.17.187-.285.43-.344.728-.053.299-.08.664-.08 1.096 0 .448.027.824.08 1.128.053.304.165.55.336.736.176.187.432.28.768.28s.59-.093.76-.28c.176-.187.29-.432.344-.736.053-.304.08-.68.08-1.128zM6.992 45.76A31.6 31.6 0 0 0 8.2 44.672a4.95 4.95 0 0 0 .744-.896c.197-.31.296-.619.296-.928 0-.32-.078-.57-.232-.752-.15-.181-.387-.272-.712-.272-.315 0-.56.101-.736.304-.17.197-.262.464-.272.8h-.88c.016-.608.197-1.072.544-1.392.352-.325.797-.488 1.336-.488.581 0 1.034.16 1.36.48.33.32.496.747.496 1.28 0 .384-.099.755-.296 1.112-.192.352-.424.67-.696.952-.267.277-.608.6-1.024.968l-.36.32h2.536v.76H6.416v-.664l.576-.496zm4.113-1.752c0-.923.155-1.643.464-2.16.315-.523.853-.784 1.616-.784.763 0 1.299.261 1.608.784.315.517.472 1.237.472 2.16 0 .933-.157 1.664-.472 2.192-.31.523-.845.784-1.608.784-.763 0-1.301-.261-1.616-.784-.31-.528-.464-1.259-.464-2.192zm3.264 0c0-.432-.03-.797-.088-1.096a1.421 1.421 0 0 0-.336-.728c-.17-.192-.424-.288-.76-.288s-.59.096-.76.288c-.17.187-.285.43-.344.728-.053.299-.08.664-.08 1.096 0 .448.027.824.08 1.128.053.304.165.55.336.736.176.187.432.28.768.28s.59-.093.76-.28c.176-.187.29-.432.344-.736.053-.304.08-.68.08-1.128zm1.861 0c0-.923.155-1.643.464-2.16.315-.523.853-.784 1.616-.784.763 0 1.299.261 1.608.784.315.517.472 1.237.472 2.16 0 .933-.157 1.664-.472 2.192-.31.523-.845.784-1.608.784-.763 0-1.301-.261-1.616-.784-.31-.528-.464-1.259-.464-2.192zm3.264 0c0-.432-.03-.797-.088-1.096a1.421 1.421 0 0 0-.336-.728c-.17-.192-.424-.288-.76-.288s-.59.096-.76.288c-.17.187-.285.43-.344.728-.053.299-.08.664-.08 1.096 0 .448.027.824.08 1.128.053.304.165.55.336.736.176.187.432.28.768.28s.59-.093.76-.28c.176-.187.29-.432.344-.736.053-.304.08-.68.08-1.128zm1.861 0c0-.923.155-1.643.464-2.16.315-.523.853-.784 1.616-.784.763 0 1.299.261 1.608.784.315.517.472 1.237.472 2.16 0 .933-.157 1.664-.472 2.192-.31.523-.845.784-1.608.784-.763 0-1.301-.261-1.616-.784-.31-.528-.464-1.259-.464-2.192zm3.264 0c0-.432-.03-.797-.088-1.096a1.421 1.421 0 0 0-.336-.728c-.17-.192-.424-.288-.76-.288s-.59.096-.76.288c-.17.187-.285.43-.344.728-.053.299-.08.664-.08 1.096 0 .448.027.824.08 1.128.053.304.165.55.336.736.176.187.432.28.768.28s.59-.093.76-.28c.176-.187.29-.432.344-.736.053-.304.08-.68.08-1.128zM1.296 7.76a31.6 31.6 0 0 0 1.209-1.088c.298-.288.546-.587.744-.896.197-.31.296-.619.296-.928 0-.32-.078-.57-.232-.752-.15-.181-.387-.272-.713-.272-.314 0-.56.101-.736.304-.17.197-.26.464-.272.8h-.88c.017-.608.198-1.072.544-1.392.353-.325.798-.488 1.336-.488.582 0 1.035.16 1.36.48.331.32.497.747.497 1.28 0 .384-.1.755-.296 1.112-.192.352-.424.67-.696.952-.267.277-.608.6-1.024.968l-.36.32h2.536v.76H.72v-.664l.577-.496zM9.17 3.952H6.49v1.592c.112-.15.277-.275.496-.376.224-.101.461-.152.712-.152.448 0 .81.096 1.088.288.282.192.482.435.6.728.122.293.184.603.184.928 0 .395-.078.747-.232 1.056a1.67 1.67 0 0 1-.68.72C8.359 8.912 7.99 9 7.554 9c-.582 0-1.048-.144-1.4-.432a1.75 1.75 0 0 1-.632-1.144h.888c.058.25.189.45.392.6.202.144.456.216.76.216.378 0 .661-.115.848-.344.192-.23.288-.533.288-.912 0-.384-.096-.677-.288-.88-.192-.208-.475-.312-.848-.312a1.09 1.09 0 0 0-.664.2 1.084 1.084 0 0 0-.384.528H5.65V3.152h3.52v.8zm1.35 2.056c0-.923.154-1.643.463-2.16.315-.523.853-.784 1.616-.784.763 0 1.299.261 1.608.784.315.517.472 1.237.472 2.16 0 .933-.157 1.664-.472 2.192-.31.523-.845.784-1.608.784-.763 0-1.301-.261-1.616-.784-.31-.528-.464-1.259-.464-2.192zm3.263 0c0-.432-.03-.797-.088-1.096a1.423 1.423 0 0 0-.336-.728c-.17-.192-.424-.288-.76-.288s-.59.096-.76.288c-.17.187-.285.43-.344.728-.053.299-.08.664-.08 1.096 0 .448.027.824.08 1.128.053.304.165.55.336.736.176.187.432.28.768.28s.59-.093.76-.28c.176-.187.29-.432.344-.736.053-.304.08-.68.08-1.128zm1.861 0c0-.923.155-1.643.464-2.16.315-.523.853-.784 1.616-.784.763 0 1.299.261 1.608.784.315.517.472 1.237.472 2.16 0 .933-.157 1.664-.472 2.192-.31.523-.845.784-1.608.784-.763 0-1.301-.261-1.616-.784-.31-.528-.464-1.259-.464-2.192zm3.264 0c0-.432-.03-.797-.088-1.096a1.423 1.423 0 0 0-.336-.728c-.17-.192-.424-.288-.76-.288s-.59.096-.76.288c-.17.187-.285.43-.344.728-.053.299-.08.664-.08 1.096 0 .448.027.824.08 1.128.053.304.165.55.336.736.176.187.432.28.768.28s.59-.093.76-.28c.176-.187.29-.432.344-.736.053-.304.08-.68.08-1.128zm6.277.488H23.57v1.656h-.848V6.496h-1.616v-.768h1.616V4.072h.848v1.656h1.616v.768zM700.54 201.05v5.01c0 .62-.19 1.11-.57 1.47-.373.36-.867.54-1.48.54s-1.11-.18-1.49-.54c-.373-.36-.56-.85-.56-1.47h1.15c.007.307.083.55.23.73.153.18.377.27.67.27.293 0 .517-.09.67-.27.153-.187.23-.43.23-.73v-5.01h1.15zm6.845 1.44V208h-1.14v-.65c-.18.227-.417.407-.71.54-.287.127-.594.19-.92.19-.434 0-.824-.09-1.17-.27-.34-.18-.61-.447-.81-.8-.194-.353-.29-.78-.29-1.28v-3.24h1.13v3.07c0 .493.123.873.37 1.14.246.26.583.39 1.01.39.426 0 .763-.13 1.01-.39.253-.267.38-.647.38-1.14v-3.07h1.14zm4.284-.09c.433 0 .82.09 1.16.27.346.18.616.447.81.8.193.353.29.78.29 1.28V208h-1.13v-3.08c0-.493-.124-.87-.37-1.13-.247-.267-.584-.4-1.01-.4-.427 0-.767.133-1.02.4-.247.26-.37.637-.37 1.13V208h-1.14v-5.51h1.14v.63c.186-.227.423-.403.71-.53.293-.127.603-.19.93-.19zm6.791 4.05a38.993 38.993 0 0 0 1.51-1.36 6.12 6.12 0 0 0 .93-1.12c.247-.387.37-.773.37-1.16 0-.4-.096-.713-.29-.94-.186-.227-.483-.34-.89-.34-.393 0-.7.127-.92.38-.213.247-.326.58-.34 1h-1.1c.02-.76.247-1.34.68-1.74.44-.407.997-.61 1.67-.61.727 0 1.294.2 1.7.6.414.4.62.933.62 1.6 0 .48-.123.943-.37 1.39-.24.44-.53.837-.87 1.19-.333.347-.76.75-1.28 1.21l-.45.4h3.17v.95h-4.86v-.83l.72-.62zm5.772 0a39.761 39.761 0 0 0 1.51-1.36c.373-.36.683-.733.93-1.12.247-.387.37-.773.37-1.16 0-.4-.097-.713-.29-.94-.187-.227-.483-.34-.89-.34-.393 0-.7.127-.92.38-.213.247-.327.58-.34 1h-1.1c.02-.76.247-1.34.68-1.74.44-.407.997-.61 1.67-.61.727 0 1.293.2 1.7.6.413.4.62.933.62 1.6 0 .48-.123.943-.37 1.39-.24.44-.53.837-.87 1.19-.333.347-.76.75-1.28 1.21l-.45.4h3.17v.95h-4.86v-.83l.72-.62zM40.54 201.05v5.01c0 .62-.19 1.11-.57 1.47-.373.36-.867.54-1.48.54s-1.11-.18-1.49-.54c-.373-.36-.56-.85-.56-1.47h1.15c.007.307.083.55.23.73.153.18.377.27.67.27.293 0 .517-.09.67-.27.153-.187.23-.43.23-.73v-5.01h1.15zm1.474 4.17c0-.553.114-1.043.34-1.47a2.536 2.536 0 0 1 2.26-1.35c.434 0 .81.087 1.13.26.327.167.587.377.78.63v-.8h1.15V208h-1.15v-.82a2.26 2.26 0 0 1-.79.65c-.333.173-.713.26-1.14.26-.473 0-.906-.12-1.3-.36a2.677 2.677 0 0 1-.94-1.02 3.208 3.208 0 0 1-.34-1.49zm4.51.02c0-.38-.08-.71-.24-.99a1.605 1.605 0 0 0-1.43-.86c-.293 0-.566.073-.82.22-.253.14-.46.35-.62.63-.153.273-.23.6-.23.98s.077.713.23 1c.16.287.367.507.62.66a1.642 1.642 0 0 0 1.64 0c.254-.147.457-.36.61-.64.16-.287.24-.62.24-1zm5.428-2.84c.433 0 .82.09 1.16.27.346.18.616.447.81.8.193.353.29.78.29 1.28V208h-1.13v-3.08c0-.493-.123-.87-.37-1.13-.247-.267-.584-.4-1.01-.4-.427 0-.767.133-1.02.4-.247.26-.37.637-.37 1.13V208h-1.14v-5.51h1.14v.63c.187-.227.423-.403.71-.53.293-.127.603-.19.93-.19zm6.792 4.05a39.528 39.528 0 0 0 1.51-1.36c.373-.36.683-.733.93-1.12.246-.387.37-.773.37-1.16 0-.4-.097-.713-.29-.94-.187-.227-.484-.34-.89-.34-.394 0-.7.127-.92.38-.214.247-.327.58-.34 1h-1.1c.02-.76.246-1.34.68-1.74.44-.407.996-.61 1.67-.61.726 0 1.293.2 1.7.6.413.4.62.933.62 1.6 0 .48-.124.943-.37 1.39-.24.44-.53.837-.87 1.19-.334.347-.76.75-1.28 1.21l-.45.4h3.17v.95h-4.86v-.83l.72-.62zm5.771 0a39.528 39.528 0 0 0 1.51-1.36c.373-.36.683-.733.93-1.12.247-.387.37-.773.37-1.16 0-.4-.097-.713-.29-.94-.186-.227-.483-.34-.89-.34-.393 0-.7.127-.92.38-.213.247-.326.58-.34 1h-1.1c.02-.76.247-1.34.68-1.74.44-.407.997-.61 1.67-.61.727 0 1.293.2 1.7.6.414.4.62.933.62 1.6 0 .48-.123.943-.37 1.39-.24.44-.53.837-.87 1.19-.333.347-.76.75-1.28 1.21l-.45.4h3.17v.95h-4.86v-.83l.72-.62zM171.84 201.05v.93h-2.95v2.05h2.3v.93h-2.3V208h-1.14v-6.95h4.09zm6.106 4.06c0 .207-.013.393-.04.56h-4.21c.034.44.197.793.49 1.06.294.267.654.4 1.08.4.614 0 1.047-.257 1.3-.77h1.23c-.166.507-.47.923-.91 1.25-.433.32-.973.48-1.62.48-.526 0-1-.117-1.42-.35a2.616 2.616 0 0 1-.98-1c-.233-.433-.35-.933-.35-1.5s.114-1.063.34-1.49c.234-.433.557-.767.97-1 .42-.233.9-.35 1.44-.35a2.8 2.8 0 0 1 1.39.34c.407.227.724.547.95.96.227.407.34.877.34 1.41zm-1.19-.36c-.006-.42-.156-.757-.45-1.01-.293-.253-.656-.38-1.09-.38-.393 0-.73.127-1.01.38-.28.247-.446.583-.5 1.01h3.05zm3.452-1.44c.194-.267.457-.483.79-.65.34-.173.717-.26 1.13-.26.487 0 .927.117 1.32.35.394.233.704.567.93 1 .227.427.34.917.34 1.47 0 .553-.113 1.05-.34 1.49-.226.433-.54.773-.94 1.02-.393.24-.83.36-1.31.36-.426 0-.806-.083-1.14-.25a2.207 2.207 0 0 1-.78-.64v.8h-1.14v-7.4h1.14v2.71zm3.35 1.91c0-.38-.08-.707-.24-.98-.153-.28-.36-.49-.62-.63a1.643 1.643 0 0 0-1.64 0 1.69 1.69 0 0 0-.62.64c-.153.28-.23.61-.23.99s.077.713.23 1c.16.28.367.493.62.64a1.643 1.643 0 0 0 1.64 0c.26-.153.467-.373.62-.66.16-.287.24-.62.24-1zm5.365 1.23a38.993 38.993 0 0 0 1.51-1.36 6.12 6.12 0 0 0 .93-1.12c.247-.387.37-.773.37-1.16 0-.4-.096-.713-.29-.94-.186-.227-.483-.34-.89-.34-.393 0-.7.127-.92.38-.213.247-.326.58-.34 1h-1.1c.02-.76.247-1.34.68-1.74.44-.407.997-.61 1.67-.61.727 0 1.294.2 1.7.6.414.4.62.933.62 1.6 0 .48-.123.943-.37 1.39-.24.44-.53.837-.87 1.19-.333.347-.76.75-1.28 1.21l-.45.4h3.17v.95h-4.86v-.83l.72-.62zm5.772 0a39.761 39.761 0 0 0 1.51-1.36c.373-.36.683-.733.93-1.12.247-.387.37-.773.37-1.16 0-.4-.097-.713-.29-.94-.187-.227-.483-.34-.89-.34-.393 0-.7.127-.92.38-.213.247-.327.58-.34 1h-1.1c.02-.76.247-1.34.68-1.74.44-.407.997-.61 1.67-.61.727 0 1.293.2 1.7.6.413.4.62.933.62 1.6 0 .48-.123.943-.37 1.39-.24.44-.53.837-.87 1.19-.333.347-.76.75-1.28 1.21l-.45.4h3.17v.95h-4.86v-.83l.72-.62zM311.07 201.05V208h-1.14v-4.76l-2.12 4.76h-.79l-2.13-4.76V208h-1.14v-6.95h1.23l2.44 5.45 2.43-5.45h1.22zm1.118 4.17c0-.553.114-1.043.34-1.47a2.542 2.542 0 0 1 2.26-1.35c.434 0 .81.087 1.13.26.327.167.587.377.78.63v-.8h1.15V208h-1.15v-.82c-.193.26-.456.477-.79.65-.333.173-.713.26-1.14.26a2.45 2.45 0 0 1-1.3-.36 2.684 2.684 0 0 1-.94-1.02 3.215 3.215 0 0 1-.34-1.49zm4.51.02c0-.38-.08-.71-.24-.99a1.61 1.61 0 0 0-1.43-.86c-.293 0-.566.073-.82.22-.253.14-.46.35-.62.63-.153.273-.23.6-.23.98s.077.713.23 1c.16.287.367.507.62.66a1.643 1.643 0 0 0 1.64 0 1.61 1.61 0 0 0 .61-.64c.16-.287.24-.62.24-1zm3.788-1.95c.166-.28.386-.497.66-.65.28-.16.61-.24.99-.24v1.18h-.29c-.447 0-.787.113-1.02.34-.227.227-.34.62-.34 1.18v2.9h-1.14v-5.51h1.14v.8zm5.775 3.16a38.993 38.993 0 0 0 1.51-1.36 6.12 6.12 0 0 0 .93-1.12c.247-.387.37-.773.37-1.16 0-.4-.096-.713-.29-.94-.186-.227-.483-.34-.89-.34-.393 0-.7.127-.92.38-.213.247-.326.58-.34 1h-1.1c.02-.76.247-1.34.68-1.74.44-.407.997-.61 1.67-.61.727 0 1.294.2 1.7.6.414.4.62.933.62 1.6 0 .48-.123.943-.37 1.39-.24.44-.53.837-.87 1.19-.333.347-.76.75-1.28 1.21l-.45.4h3.17v.95h-4.86v-.83l.72-.62zm5.772 0a39.761 39.761 0 0 0 1.51-1.36c.373-.36.683-.733.93-1.12.246-.387.37-.773.37-1.16 0-.4-.097-.713-.29-.94-.187-.227-.484-.34-.89-.34-.394 0-.7.127-.92.38-.214.247-.327.58-.34 1h-1.1c.02-.76.246-1.34.68-1.74.44-.407.996-.61 1.67-.61.726 0 1.293.2 1.7.6.413.4.62.933.62 1.6 0 .48-.124.943-.37 1.39-.24.44-.53.837-.87 1.19-.334.347-.76.75-1.28 1.21l-.45.4h3.17v.95h-4.86v-.83l.72-.62zM435.94 206.58h-2.91l-.5 1.42h-1.19l2.49-6.96h1.32l2.49 6.96h-1.2l-.5-1.42zm-.32-.93-1.13-3.23-1.14 3.23h2.27zm4.243-2.35c.193-.253.456-.467.79-.64.333-.173.71-.26 1.13-.26.48 0 .916.12 1.31.36.4.233.713.563.94.99.226.427.34.917.34 1.47 0 .553-.114 1.05-.34 1.49a2.58 2.58 0 0 1-.94 1.02c-.394.24-.83.36-1.31.36-.42 0-.794-.083-1.12-.25a2.557 2.557 0 0 1-.8-.64v3.42h-1.14v-8.13h1.14v.81zm3.35 1.92c0-.38-.08-.707-.24-.98a1.53 1.53 0 0 0-.62-.63 1.64 1.64 0 0 0-1.64 0c-.254.147-.46.36-.62.64-.154.28-.23.61-.23.99s.076.713.23 1c.16.28.366.493.62.64a1.64 1.64 0 0 0 1.64 0c.26-.153.466-.373.62-.66.16-.287.24-.62.24-1zm3.427-1.93c.167-.28.387-.497.66-.65.28-.16.61-.24.99-.24v1.18H448c-.447 0-.787.113-1.02.34-.227.227-.34.62-.34 1.18v2.9h-1.14v-5.51h1.14v.8zm5.776 3.16a39.761 39.761 0 0 0 1.51-1.36c.373-.36.683-.733.93-1.12.246-.387.37-.773.37-1.16 0-.4-.097-.713-.29-.94-.187-.227-.484-.34-.89-.34-.394 0-.7.127-.92.38-.214.247-.327.58-.34 1h-1.1c.02-.76.246-1.34.68-1.74.44-.407.996-.61 1.67-.61.726 0 1.293.2 1.7.6.413.4.62.933.62 1.6 0 .48-.124.943-.37 1.39-.24.44-.53.837-.87 1.19-.334.347-.76.75-1.28 1.21l-.45.4h3.17v.95h-4.86v-.83l.72-.62zm5.771 0a39.761 39.761 0 0 0 1.51-1.36c.373-.36.683-.733.93-1.12.247-.387.37-.773.37-1.16 0-.4-.097-.713-.29-.94-.187-.227-.483-.34-.89-.34-.393 0-.7.127-.92.38-.213.247-.327.58-.34 1h-1.1c.02-.76.247-1.34.68-1.74.44-.407.997-.61 1.67-.61.727 0 1.293.2 1.7.6.413.4.62.933.62 1.6 0 .48-.123.943-.37 1.39-.24.44-.53.837-.87 1.19-.333.347-.76.75-1.28 1.21l-.45.4h3.17v.95h-4.86v-.83l.72-.62zM575.07 201.05V208h-1.14v-4.76l-2.12 4.76h-.79l-2.13-4.76V208h-1.14v-6.95h1.23l2.44 5.45 2.43-5.45h1.22zm1.118 4.17c0-.553.114-1.043.34-1.47a2.542 2.542 0 0 1 2.26-1.35c.434 0 .81.087 1.13.26.327.167.587.377.78.63v-.8h1.15V208h-1.15v-.82c-.193.26-.456.477-.79.65-.333.173-.713.26-1.14.26a2.45 2.45 0 0 1-1.3-.36 2.684 2.684 0 0 1-.94-1.02 3.215 3.215 0 0 1-.34-1.49zm4.51.02c0-.38-.08-.71-.24-.99a1.61 1.61 0 0 0-1.43-.86c-.293 0-.566.073-.82.22-.253.14-.46.35-.62.63-.153.273-.23.6-.23.98s.077.713.23 1c.16.287.367.507.62.66a1.643 1.643 0 0 0 1.64 0 1.61 1.61 0 0 0 .61-.64c.16-.287.24-.62.24-1zm7.608-2.75-3.38 8.1h-1.18l1.12-2.68-2.17-5.42h1.27l1.55 4.2 1.61-4.2h1.18zm3.938 3.96a39.761 39.761 0 0 0 1.51-1.36c.373-.36.683-.733.93-1.12.246-.387.37-.773.37-1.16 0-.4-.097-.713-.29-.94-.187-.227-.484-.34-.89-.34-.394 0-.7.127-.92.38-.214.247-.327.58-.34 1h-1.1c.02-.76.246-1.34.68-1.74.44-.407.996-.61 1.67-.61.726 0 1.293.2 1.7.6.413.4.62.933.62 1.6 0 .48-.124.943-.37 1.39-.24.44-.53.837-.87 1.19-.334.347-.76.75-1.28 1.21l-.45.4h3.17v.95h-4.86v-.83l.72-.62zm5.771 0a39.761 39.761 0 0 0 1.51-1.36c.373-.36.683-.733.93-1.12.247-.387.37-.773.37-1.16 0-.4-.097-.713-.29-.94-.187-.227-.483-.34-.89-.34-.393 0-.7.127-.92.38-.213.247-.327.58-.34 1h-1.1c.02-.76.247-1.34.68-1.74.44-.407.997-.61 1.67-.61.727 0 1.293.2 1.7.6.413.4.62.933.62 1.6 0 .48-.123.943-.37 1.39-.24.44-.53.837-.87 1.19-.333.347-.76.75-1.28 1.21l-.45.4h3.17v.95h-4.86v-.83l.72-.62z" fill="#626060"/>
    <defs>
        <linearGradient id="v96zd0jk2a" x1="61.5" y1="46" x2="61.5" y2="190" gradientUnits="userSpaceOnUse">
            <stop stop-color="#50F16A"/>
            <stop offset="1" stop-color="#96FF65"/>
        </linearGradient>
        <linearGradient id="1cnlh6immb" x1="46.5" y1="79" x2="46.5" y2="190" gradientUnits="userSpaceOnUse">
            <stop stop-color="#254B77" stop-opacity=".67"/>
            <stop offset="1" stop-color="#AAD1FF"/>
        </linearGradient>
        <linearGradient id="z1ik12e9pc" x1="193.5" y1="93" x2="193.5" y2="190" gradientUnits="userSpaceOnUse">
            <stop stop-color="#50F16A"/>
            <stop offset="1" stop-color="#96FF65"/>
        </linearGradient>
        <linearGradient id="ufrxcwjkvd" x1="178.5" y1="114" x2="178.5" y2="190" gradientUnits="userSpaceOnUse">
            <stop stop-color="#254B77" stop-opacity=".67"/>
            <stop offset="1" stop-color="#AAD1FF"/>
        </linearGradient>
        <linearGradient id="l0wpc35mie" x1="325.5" y1="74" x2="325.5" y2="190" gradientUnits="userSpaceOnUse">
            <stop stop-color="#50F16A"/>
            <stop offset="1" stop-color="#96FF65"/>
        </linearGradient>
        <linearGradient id="acyacwpgof" x1="310.5" y1="29" x2="310.5" y2="190" gradientUnits="userSpaceOnUse">
            <stop stop-color="#254B77" stop-opacity=".67"/>
            <stop offset="1" stop-color="#AAD1FF"/>
        </linearGradient>
        <linearGradient id="b4vzpe0icg" x1="457.5" y1="86" x2="457.5" y2="190" gradientUnits="userSpaceOnUse">
            <stop stop-color="#50F16A"/>
            <stop offset="1" stop-color="#96FF65"/>
        </linearGradient>
        <linearGradient id="e75uuvu0sh" x1="442.5" y1="114" x2="442.5" y2="190" gradientUnits="userSpaceOnUse">
            <stop stop-color="#254B77" stop-opacity=".67"/>
            <stop offset="1" stop-color="#AAD1FF"/>
        </linearGradient>
        <linearGradient id="fg2sotdq4i" x1="589.5" y1="46" x2="589.5" y2="190" gradientUnits="userSpaceOnUse">
            <stop stop-color="#50F16A"/>
            <stop offset="1" stop-color="#96FF65"/>
        </linearGradient>
        <linearGradient id="46rilccftj" x1="574.5" y1="114" x2="574.5" y2="190" gradientUnits="userSpaceOnUse">
            <stop stop-color="#254B77" stop-opacity=".67"/>
            <stop offset="1" stop-color="#AAD1FF"/>
        </linearGradient>
        <linearGradient id="6muczy3ixk" x1="721.5" y1="45" x2="721.5" y2="189" gradientUnits="userSpaceOnUse">
            <stop stop-color="#50F16A"/>
            <stop offset="1" stop-color="#96FF65"/>
        </linearGradient>
        <linearGradient id="hla257y4wl" x1="706.5" y1="23" x2="706.5" y2="189" gradientUnits="userSpaceOnUse">
            <stop stop-color="#254B77" stop-opacity=".67"/>
            <stop offset="1" stop-color="#AAD1FF"/>
        </linearGradient>
    </defs>
</svg>
