<svg width="152" height="153" viewBox="0 0 152 153" fill="none" xmlns="http://www.w3.org/2000/svg">
    <circle cx="76" cy="76" r="68" fill="#fff" stroke="#AFAFAF" stroke-width="10"/>
    <path d="M144 80.5C144 39.079 114.346 8 79 8" stroke="#0FCB2D" stroke-width="16"/>
    <path d="M79 144c-37.5 2.5-71-29.945-71-67.5S38.236 8 78 8" stroke="#FFD80E" stroke-width="16"/>
    <path d="M59.602 89.098c0 .812-.28 1.489-.84 2.03-.55.532-1.395.798-2.534.798h-1.876V96h-1.274v-9.758h3.15c1.101 0 1.937.266 2.506.798.579.532.868 1.218.868 2.058zm-3.374 1.778c.71 0 1.232-.154 1.568-.462.336-.308.504-.747.504-1.316 0-1.204-.69-1.806-2.072-1.806h-1.876v3.584h1.876zm8.303 5.25a3.967 3.967 0 0 1-1.96-.49A3.562 3.562 0 0 1 61.2 94.25c-.326-.607-.49-1.307-.49-2.1 0-.784.168-1.475.504-2.072a3.508 3.508 0 0 1 1.4-1.386 3.995 3.995 0 0 1 1.974-.49c.728 0 1.386.163 1.974.49a3.44 3.44 0 0 1 1.386 1.372c.346.597.518 1.293.518 2.086 0 .793-.177 1.493-.532 2.1a3.604 3.604 0 0 1-1.414 1.386c-.597.327-1.26.49-1.988.49zm0-1.12a2.69 2.69 0 0 0 1.288-.322c.402-.215.724-.537.966-.966.252-.43.378-.952.378-1.568 0-.616-.12-1.139-.364-1.568-.242-.43-.56-.747-.952-.952a2.61 2.61 0 0 0-1.274-.322c-.466 0-.896.107-1.288.322-.382.205-.69.523-.924.952-.233.43-.35.952-.35 1.568 0 .625.112 1.153.336 1.582.234.43.542.751.924.966.383.205.803.308 1.26.308zm8.325 1.12c-.587 0-1.115-.098-1.581-.294-.467-.205-.836-.485-1.107-.84a2.27 2.27 0 0 1-.448-1.246h1.317c.037.383.214.695.531.938.327.243.752.364 1.275.364.485 0 .867-.107 1.147-.322.28-.215.42-.485.42-.812a.786.786 0 0 0-.447-.742c-.3-.168-.761-.331-1.386-.49-.57-.15-1.037-.299-1.4-.448a2.658 2.658 0 0 1-.925-.686c-.251-.308-.377-.71-.377-1.204 0-.392.116-.751.35-1.078.233-.327.564-.583.994-.77.429-.196.919-.294 1.47-.294.849 0 1.535.215 2.058.644.522.43.802 1.017.84 1.764h-1.275a1.307 1.307 0 0 0-.49-.966c-.289-.243-.68-.364-1.175-.364-.458 0-.822.098-1.093.294-.27.196-.406.453-.406.77 0 .252.08.462.239.63.168.159.373.29.615.392.252.093.598.2 1.037.322.55.15.998.299 1.343.448.346.14.64.355.882.644.252.29.383.667.392 1.134 0 .42-.116.798-.35 1.134-.233.336-.564.602-.993.798-.42.187-.906.28-1.457.28zm5.257-9.044a.838.838 0 0 1-.616-.252.838.838 0 0 1-.252-.616c0-.243.084-.448.252-.616a.838.838 0 0 1 .616-.252c.233 0 .43.084.588.252a.838.838 0 0 1 .252.616.838.838 0 0 1-.252.616.777.777 0 0 1-.588.252zm.616 1.246V96h-1.274v-7.672h1.274zm3.725 1.05V93.9c0 .373.08.64.238.798.159.15.434.224.826.224h.938V96h-1.148c-.71 0-1.241-.163-1.596-.49-.354-.327-.532-.863-.532-1.61v-4.522h-.994v-1.05h.994v-1.932h1.274v1.932h2.002v1.05h-2.002zm4.204-2.296a.838.838 0 0 1-.616-.252.838.838 0 0 1-.252-.616c0-.243.084-.448.252-.616a.838.838 0 0 1 .616-.252c.233 0 .43.084.588.252a.838.838 0 0 1 .252.616.838.838 0 0 1-.252.616.777.777 0 0 1-.588.252zm.616 1.246V96H86v-7.672h1.274zm5.027 6.496 2.38-6.496h1.358L93.03 96h-1.484l-3.01-7.672h1.372l2.394 6.496zm11.992-2.954c0 .243-.014.5-.042.77h-6.132c.046.756.303 1.349.77 1.778.476.42 1.05.63 1.722.63.551 0 1.008-.126 1.372-.378.373-.261.635-.607.784-1.036h1.372a3.33 3.33 0 0 1-1.232 1.806c-.616.457-1.381.686-2.296.686-.728 0-1.382-.163-1.96-.49a3.495 3.495 0 0 1-1.344-1.386c-.327-.607-.49-1.307-.49-2.1 0-.793.159-1.489.476-2.086a3.31 3.31 0 0 1 1.33-1.372c.578-.327 1.241-.49 1.988-.49.728 0 1.372.159 1.932.476.56.317.989.756 1.288 1.316.308.55.462 1.176.462 1.876zm-1.316-.266c0-.485-.107-.9-.322-1.246a2.03 2.03 0 0 0-.882-.798 2.63 2.63 0 0 0-1.218-.28c-.644 0-1.195.205-1.652.616-.448.41-.705.98-.77 1.708h4.844z" fill="#626060"/>
    <path d="M63.294 67.142c-1.248-.624-1.872-1.608-1.872-2.952 0-.648.162-1.242.486-1.782.324-.54.81-.966 1.458-1.278.648-.324 1.44-.486 2.376-.486.924 0 1.71.162 2.358.486.66.312 1.152.738 1.476 1.278.324.54.486 1.134.486 1.782 0 .672-.174 1.266-.522 1.782a3.368 3.368 0 0 1-1.35 1.17 3.293 3.293 0 0 1 1.62 1.242c.396.564.594 1.23.594 1.998 0 .78-.198 1.47-.594 2.07-.396.6-.948 1.062-1.656 1.386-.708.324-1.512.486-2.412.486-.9 0-1.704-.162-2.412-.486-.696-.324-1.242-.786-1.638-1.386-.396-.6-.594-1.29-.594-2.07 0-.78.198-1.452.594-2.016.396-.564.93-.972 1.602-1.224zm4.806-2.7c0-.672-.21-1.188-.63-1.548-.42-.36-.996-.54-1.728-.54-.72 0-1.29.18-1.71.54-.42.36-.63.882-.63 1.566 0 .6.216 1.092.648 1.476.444.372 1.008.558 1.692.558.684 0 1.248-.192 1.692-.576.444-.384.666-.876.666-1.476zm-2.358 3.6c-.792 0-1.44.198-1.944.594-.492.384-.738.942-.738 1.674 0 .684.24 1.242.72 1.674.48.42 1.134.63 1.962.63.816 0 1.458-.216 1.926-.648.48-.432.72-.984.72-1.656 0-.72-.246-1.278-.738-1.674-.48-.396-1.116-.594-1.908-.594zm15.276-5.4h-6.03v3.582c.252-.336.624-.618 1.117-.846a3.842 3.842 0 0 1 1.602-.342c1.008 0 1.824.216 2.448.648.635.432 1.085.978 1.35 1.638.276.66.413 1.356.413 2.088 0 .888-.174 1.68-.522 2.376a3.756 3.756 0 0 1-1.53 1.62c-.671.396-1.5.594-2.484.594-1.308 0-2.358-.324-3.15-.972-.791-.648-1.266-1.506-1.421-2.574h1.997c.132.564.426 1.014.882 1.35.457.324 1.026.486 1.71.486.852 0 1.488-.258 1.908-.774.432-.516.648-1.2.648-2.052 0-.864-.216-1.524-.648-1.98-.432-.468-1.068-.702-1.908-.702-.588 0-1.086.15-1.494.45-.396.288-.684.684-.864 1.188h-1.944v-7.578h7.92v1.8zm2.713 1.404c0-.876.252-1.56.756-2.052.516-.504 1.176-.756 1.98-.756s1.458.252 1.962.756c.516.492.774 1.176.774 2.052 0 .876-.258 1.566-.774 2.07-.504.504-1.158.756-1.962.756s-1.464-.252-1.98-.756c-.504-.504-.756-1.194-.756-2.07zm10.98-2.574L87.529 74h-2.016l7.182-12.528h2.016zm-8.244 1.008c-.756 0-1.134.522-1.134 1.566 0 1.056.378 1.584 1.134 1.584.36 0 .636-.126.828-.378.204-.264.306-.666.306-1.206 0-1.044-.378-1.566-1.134-1.566zm4.59 8.928c0-.876.252-1.56.756-2.052.516-.504 1.176-.756 1.98-.756.792 0 1.44.252 1.944.756.516.492.774 1.176.774 2.052 0 .876-.258 1.566-.774 2.07-.504.504-1.152.756-1.944.756-.804 0-1.464-.252-1.98-.756-.504-.504-.756-1.194-.756-2.07zm2.718-1.566c-.756 0-1.134.522-1.134 1.566s.378 1.566 1.134 1.566c.756 0 1.134-.522 1.134-1.566s-.378-1.566-1.134-1.566z" fill="#000"/>
</svg>
