<svg width="54" height="54" viewBox="0 0 54 54" fill="none" xmlns="http://www.w3.org/2000/svg">
    <path fill-rule="evenodd" clip-rule="evenodd" d="M26.772 50.198a23.426 23.426 0 1 0 0-46.852 23.426 23.426 0 0 0 0 46.852zm0 3.346a26.772 26.772 0 1 0 0-53.543 26.772 26.772 0 0 0 0 53.543z" fill="#000"/>
    <path fill-rule="evenodd" clip-rule="evenodd" d="M13.386 26.771a1.673 1.673 0 0 0 1.674 1.673h19.386l-7.185 7.182a1.677 1.677 0 0 0 2.37 2.37l10.039-10.04a1.674 1.674 0 0 0 0-2.37l-10.04-10.04a1.675 1.675 0 0 0-2.37 2.37l7.186 7.182H15.06a1.673 1.673 0 0 0-1.674 1.673z" fill="#000"/>
</svg>
