<svg width="147" height="217" viewBox="0 0 147 217" fill="none" xmlns="http://www.w3.org/2000/svg">
    <path d="M124.892 137.432H81.93v52.926h42.962v-52.926z" fill="#FDEA6C"/>
    <path fill-rule="evenodd" clip-rule="evenodd" d="M69.4 85.661c4.635-3.552 16.26-5.115 21.205-1.714 4.947 3.401 5.408 8.925 7.69 13.995 2.141-1.012 5.684.444 6.305 2.434.773.941.809 3.552 1.341 4.839 23.16 3.694 26.641 21.757 29.465 42.261 3.685 20.806 12.059 41.568 8.427 62.978a12.9 12.9 0 0 1 1.19 2.149 2.226 2.226 0 0 1-.812 3.013 2.23 2.23 0 0 1-1.097.308c-2.158-.187-4.298-.453-6.465-.533-6.012-.204-12.033-.178-18.053-.107h-.817c-30.326.382-60.652 1.128-90.977 1.323a1.575 1.575 0 0 1-1.507-1.261 1.582 1.582 0 0 1 .015-.701c.302-1.954.577-3.916.888-5.879-7.175 1.892-14.794 2.371-21.952.196-.497-.506 1.164-.231 1.43-.311-6.58-4.493-4.618-13.977-4.032-20.806 3.623-23.39 4.902-49.276 18.915-69.265 6.056-8.152 14.945-14.599 25.149-16.047l.284-.044c2.983-.4 6.313-.524 8.924-2.149 2.94-2.344 4.183-6.678 7.273-6.713 1.021 0 2.407 1.27 3.898 2.149.116-1.927 1.155-3.552 1.386-5.044v-.133c.23-1.705-.098-3.268 1.927-4.938zm49.728 62.427c-6.509-4.519-23.319-2.246-23.71-1.989-.888.551-1.207.604-1.67 1.323l-1.349.187c-.888.302-.24 1.412.808 1.021-.63 2.709 1.226 4.644 1.963 7.326.124 1.11.124 2.23 0 3.339.07 1.137 1.323 2.478 1.119 3.614-.746 4.05-4.787 7.992-3.082 11.935 1.128 2.22 4.52 3.348 6.776 4.103 4.671 1.776 12.805-.062 15.522-4.103 1.448-2.158 3.126-7.583 3.987-9.271l.196-2.664c.559-6.66.932-13.808-.515-14.821h-.045z" fill="#F9CCCC"/>
    <path fill-rule="evenodd" clip-rule="evenodd" d="m61.922 93.671 1.865 1.146 10.816 5.328c2.096.586 3.144 1.296 3.144 2.113v8.356c0 1.119 1.968 3.653 5.905 7.602l3.632-3.623-.08-.48a30.466 30.466 0 0 1-.515-4.102c0-.746 3.552-3.57 10.656-8.472l3.108-2.93-.328-1.004c1.918.089 3.996 1.27 4.44 2.753.772.941.808 3.552 1.341 4.84 23.159 3.694 26.64 21.756 29.464 42.26 3.685 20.806 12.059 41.568 8.427 62.978.464.677.863 1.396 1.19 2.149a2.23 2.23 0 0 1-1.909 3.321c-2.158-.187-4.298-.453-6.465-.533-6.012-.204-12.032-.177-18.053-.106h-.817c-30.326.381-60.651 1.127-90.977 1.323a1.591 1.591 0 0 1-1.216-.624 1.575 1.575 0 0 1-.276-1.339c.302-1.953.577-3.916.888-5.878-7.175 1.891-14.794 2.371-21.951.195-.498-.506 1.163-.231 1.43-.311-6.58-4.493-4.618-13.977-4.032-20.806 3.623-23.39 4.902-49.276 18.914-69.265 6.057-8.152 14.946-14.599 25.149-16.046l.284-.045h.284c2.913-.373 6.11-.541 8.64-2.113 2.869-2.265 4.094-6.43 7.042-6.687zm25.922 49.045c-1.066 0-3.239 1.646-6.518 4.937l-.293.142c-3.97 1.839-6.598 3.446-7.886 4.796l-.053.053c-1.297 1.391-3.878 5.109-7.744 11.153l-5.585 3.313H57.65l-1.51 10.922 3.624 7.797 8.196-2.762 13.32-3.552 7.664-7.779 4.324-1.447a6.057 6.057 0 0 0-.062 4.529c1.128 2.22 4.52 3.347 6.776 4.102 4.671 1.776 12.805-.062 15.522-4.102 1.448-2.158 3.126-7.584 3.987-9.271l.249-3.472c.444-6.412.781-13.045-.613-14.013-6.509-4.52-23.319-2.247-23.71-1.989-.888.55-1.207.604-1.67 1.323h-.23l1.332-1.776-.47-.249c-3.33-1.767-5.524-2.655-6.536-2.655zm5.407 5.888c-.603 2.593 1.075 4.44 1.865 6.988l-2.024-3.872v-3.072l.16-.044z" fill="#EE1414"/>
    <path fill-rule="evenodd" clip-rule="evenodd" d="M61.035 93.263a.533.533 0 0 1 .826.648 20.769 20.769 0 0 1-2.167 3.419 29.698 29.698 0 0 1-1.643 1.865 32.715 32.715 0 0 1 3.88 4.289 70.693 70.693 0 0 0 4.618 5.541 14.823 14.823 0 0 0 5.746 3.658l.444.151c2.246.791 4.635 1.856 5.896 3.97a.488.488 0 0 1-.666.675c-2.202-1.359-4.777-1.625-7.166-2.531a17.88 17.88 0 0 1-6.092-3.899 61.78 61.78 0 0 1-4.813-5.532 42.904 42.904 0 0 0-5.008-5.062c-2.806 1.892-6.003 2.709-9.262 3.553l-.356.088a53.798 53.798 0 0 0-9.555 3.153 28.702 28.702 0 0 0-7.539 4.733 35.309 35.309 0 0 0-5.807 7.548 94.743 94.743 0 0 0-8.623 19.154 199.36 199.36 0 0 0-6.003 21.046 146.268 146.268 0 0 0-2.034 10.941 182.367 182.367 0 0 0-.71 5.328 29.58 29.58 0 0 1-.888 5.665 1.414 1.414 0 0 1-1.43 1.084l-.124 1.491c-.16 1.998-.302 3.996-.355 6.003-.08 3.339-.045 6.678.195 10.008v.453c.187 2.433.613 5.168 2.442 6.944 1.83 1.776 4.804 2.434 7.353 2.46 5.95.08 11.668-2.726 16.934-5.195a178.903 178.903 0 0 0 15.825-8.409 268.622 268.622 0 0 0 7.77-4.822 270.595 270.595 0 0 0 3.738-2.478c.71-.479 1.386-1.012 2.105-1.438a.986.986 0 0 1-.213-1.297c-2.087-1.776-2.957-5.044-3.055-7.654-.012-2.111.145-4.22.47-6.305.125-1.057.276-2.114.436-3.162.062-.417.106-.888.186-1.296a171.899 171.899 0 0 1-17.37 8.303 130.033 130.033 0 0 1-9.252 3.419l-.63.213a68.794 68.794 0 0 1-8.987 2.362c-.16 0-.293-.204-.116-.284 2.984-1.323 6.074-2.433 9.102-3.641l.497-.204h-.177c-1.776-.427-3.552-1.093-5.328-1.652a31.595 31.595 0 0 1-4.946-1.616.125.125 0 0 1-.013-.205.125.125 0 0 1 .075-.026c1.757.023 3.506.246 5.212.666l.622.115c1.048.187 2.122.382 3.161.64.052-.351.236-.669.515-.888 3.055-2.265 2.744-6.838 3.073-10.212l.24-2.505c.426-4.386.888-8.764 1.563-13.116 0-.23.4-.168.4.054 0 5.39-.374 10.762-.578 16.144v.888c-.116 3.33-.204 6.775-2.3 9.333a.74.74 0 0 1 .888.106c.274.311.434.706.453 1.119a288.15 288.15 0 0 0 5.639-2.433c6.02-2.664 11.917-5.657 17.653-8.88a1.112 1.112 0 0 1 1.519.391h.115a2.337 2.337 0 0 1 2.593.515l.063.062a9.198 9.198 0 0 0 2.442-1.599 25.465 25.465 0 0 0 3.933-4.795c2.07-3.152 3.828-6.66 6.625-9.253a19.218 19.218 0 0 1 8.099-4.245.295.295 0 0 1 .08-.239c.15-.151.257-.205.461-.116l.347-.533c.112-.208.236-.41.373-.603.337-.427.675-.888 1.03-1.253a8.87 8.87 0 0 1 2.051-1.864c1.723-1.057 3.552-.462 5.328.115 1.066.346 2.123.711 3.188 1.066h.116c.79.257 1.722.479 2.078 1.314.129.324.16.679.088 1.021 7.54-1.918 15.914-1.039 23.275 1.208a.898.898 0 0 1 .622.63 47.394 47.394 0 0 1 .834 13.152 33.075 33.075 0 0 1-2.752 10.993l-.089.196c-1.492 3.223-3.854 7.193-7.451 8.205-2.184.604-4.591.249-6.811.133a60.742 60.742 0 0 1-6.491-.462 7.155 7.155 0 0 1-4.75-2.664 13.24 13.24 0 0 1-1.99-4.555l-.595.204a6.628 6.628 0 0 0-2.158 1.456c-1.34 1.297-2.38 2.878-3.774 4.112a15.829 15.829 0 0 1-4.262 2.664c-3.206 1.385-6.652 1.945-10.044 2.664l-.23.044a25.255 25.255 0 0 0-7.424 2.585 1.544 1.544 0 0 1-.507 1.003 1.155 1.155 0 0 1 .213 1.519c-.967 1.545-2.663 2.433-4.164 3.418l-.098.071a182.647 182.647 0 0 1-13.88 8.374c-5.106 2.789-10.327 5.426-15.646 7.815.32 1.572.204 3.197.444 4.777v.222a1.547 1.547 0 0 1-.444 1.466l-.249.239h-.062a1.342 1.342 0 0 1-1.288 0h-.08a1.464 1.464 0 0 1-.666-1.651c.533-1.466.737-3.028 1.235-4.503l-.391.178-.524.222c-5.603 2.424-11.828 4.44-17.938 2.815a10.237 10.237 0 0 1-6.571-4.795c-1.332-2.478-1.519-5.328-1.59-8.117a65.718 65.718 0 0 1 .55-10.23c.282-2.291.691-4.565 1.226-6.811a1.669 1.669 0 0 1-.56-1.074 25.855 25.855 0 0 1 .48-6.5c.285-2.078.587-4.147.933-6.216a216.912 216.912 0 0 1 2.46-12.477 165.312 165.312 0 0 1 6.535-21.65l.24-.612a83 83 0 0 1 9.333-18.4 28.97 28.97 0 0 1 6.625-7.104 31.168 31.168 0 0 1 8.32-4.147 47.134 47.134 0 0 1 9.05-2.105c3.134-.426 6.428-.684 9.35-1.971a1.564 1.564 0 0 1 .568-1.963 54.901 54.901 0 0 0 5.906-4.83zm66.938 60.1a.14.14 0 0 1 .079-.062.14.14 0 0 1 .178.178c-1.021 4.164-1.971 8.338-2.601 12.592-1.119 7.663-.888 15.433-.826 23.15v.4c.044 4.165.115 8.32.248 12.485.071 2.096.205 4.218.134 6.323 0 1.145-.347 2.22-.453 3.348-.071.99-.071 1.984 0 2.974 0 .658-.888.631-1.004 0l-.08-.816a14.013 14.013 0 0 0-.586-3.029 17.102 17.102 0 0 1-.737-3.596c-.213-1.9-.311-3.827-.391-5.745l-.062-1.324a213.41 213.41 0 0 1 .231-24.074v-.568c.64-7.575 1.608-15.744 5.87-22.236zm-21.685-47.695a.23.23 0 0 1-.148-.281.235.235 0 0 1 .103-.136.232.232 0 0 1 .169-.027l.533.133a56.196 56.196 0 0 1 11.429 3.703 25.515 25.515 0 0 1 9.226 7.575c4.786 6.216 6.776 13.826 8.347 21.401 1.776 8.427 3.33 16.872 5.097 25.291l.329 1.571c1.625 7.833 3.161 15.683 4.298 23.613l.08.577c1.146 8.152 1.829 16.597.586 24.775-.249 1.617-2.939 1.208-2.833-.39.357-4.606.461-9.227.311-13.844a146.193 146.193 0 0 0-1.296-13.836c-.542-3.871-1.359-7.681-2.078-11.544l-.107-.604a713.316 713.316 0 0 0-1.847-9.768l-.888-4.875c-1.385-7.308-2.797-14.617-4.396-21.872l-.097-.426c-1.563-6.989-3.863-14.297-8.552-19.847-4.689-5.55-11.606-8.445-18.266-11.189zm-17.29 74.06a.37.37 0 0 1 .64 0c.402.96.616 1.988.63 3.028v.107c.115 1.225.213 2.451.275 3.685a122.8 122.8 0 0 1 .169 7.007 150.307 150.307 0 0 1-.178 7.175v.639c-.124 2.078-.32 4.44-1.305 6.216a.89.89 0 0 1-1.266.174.889.889 0 0 1-.28-.378c-.683-2.185-.328-4.778-.15-7.015l.133-1.776c.13-1.776.252-3.526.364-5.248.133-2.398.249-4.796.364-7.193 0-.773.071-1.554.116-2.336l.062-1.163a8.435 8.435 0 0 1 .426-2.922zm-76.573 3.099.302-.293c.888-.888 2.095-2.3 3.463-2.211a.819.819 0 0 1 .781 1.021c-.24 1.146-1.412 1.776-2.255 2.442-.844.666-1.776 1.59-2.664 2.416a38.224 38.224 0 0 0-2.238 2.273l-.266.293c-.267.284-2.114 1.954-1.91 2.389a.114.114 0 0 1-.008.124.119.119 0 0 1-.116.045c-.799-.258-.746-.942-.453-1.634a19.038 19.038 0 0 1 2.478-3.694 32.488 32.488 0 0 1 2.868-3.188l.018.017zm79.46-33.336c-.614-1.456-2.887-1.429-4.175-1.34a24.941 24.941 0 0 0-9.643 2.557c-2.993 1.581-5.009 4.094-6.811 6.882l-.09.133c-1.775 2.735-3.453 5.977-6.215 7.85a14.18 14.18 0 0 1-4.742 2.22.893.893 0 0 1-.55.427h-.116a6.366 6.366 0 0 1-1.892.151v3.534c0 1.776-.097 3.623 0 5.435a10.906 10.906 0 0 0 1.066 4.715 7.015 7.015 0 0 0 2.202 2.406 25.411 25.411 0 0 1 7.255-2.788c3.064-.746 6.216-1.243 9.209-2.256a16.406 16.406 0 0 0 4.085-1.989 18.63 18.63 0 0 0 3.41-3.392l.16-.186a11.15 11.15 0 0 1 3.774-3.046c1.305-.577 3.019-.684 4.164-1.563a2.336 2.336 0 0 0 .702-1.829 9.006 9.006 0 0 1-2.229-.151l-.373-.045a14.582 14.582 0 0 1-2.033-.346.133.133 0 0 1 0-.258 18.3 18.3 0 0 1 2.406-.39h.195a6.356 6.356 0 0 1 2.247-.08c.133-.506.33-.992.586-1.448a7.166 7.166 0 0 0 1.172-2.211 1.232 1.232 0 0 0-.142-.71v-.071a.517.517 0 0 0-.177-.213h-.071a1.116 1.116 0 0 1-1.306-.524c-1.1.133-2.3.088-3.339.133l-1.039.053c-1.112.089-2.23.039-3.33-.151-.142 0-.186-.275 0-.337a18.011 18.011 0 0 1 4.227-.942c.773-.115 1.554-.204 2.327-.31.515-.071 1.057-.187 1.59-.214a3.291 3.291 0 0 0-.076-4.115 3.293 3.293 0 0 0-1.168-.893 3.804 3.804 0 0 1-2.024.062 23.22 23.22 0 0 0-2.22-.097c-1.492 0-3.064.39-4.538.222-.24 0-.462-.347-.222-.533a8.381 8.381 0 0 1 4.173-1.421h.293c.48-.062 1.066-.16 1.67-.213a.89.89 0 0 1 .746-.515h.328c.826-.125.782-1.643.533-2.203zm-61.549 28.417a.197.197 0 0 1 0 .071l.151-.062h-.071l-.08-.009zm77.257-31.676a83.895 83.895 0 0 0-11.367-.204 2.77 2.77 0 0 1-2.388 1.865 4.529 4.529 0 0 1 .328 4.174 5.32 5.32 0 0 1 3.151 3.195 5.326 5.326 0 0 1-.407 4.468 3.605 3.605 0 0 1 1.11 2.744 6.604 6.604 0 0 1-1.278 3.028 7.65 7.65 0 0 0-.809 3.037 4.293 4.293 0 0 1-2.823 3.286l.08.302a8.44 8.44 0 0 0 1.882 4.023c1.368 1.358 3.481 1.34 5.328 1.429h.08c1.652.08 3.304.178 4.946.267l1.235.071c1.9.106 3.72.115 5.266-1.137 2.53-2.051 4.262-5.435 5.328-8.436 2.3-6.305 2.326-13.214 1.27-19.767a54.66 54.66 0 0 0-10.95-2.371l.018.026zm-31.471 10.452a1.844 1.844 0 0 1 1.51 1.474c.275 1.084.142 2.07.808 3.055a5.87 5.87 0 0 1 1.207 3.064c.005.512.05 1.022.134 1.527l.08.355c.105.37.144.754.115 1.137a.816.816 0 0 1-.586.773c-1.199.382-2.123-.498-2.433-1.616-.276-.968.089-2.123-.293-3.029-.213-.506-.595-.932-.817-1.438a4.72 4.72 0 0 1-.355-1.572c-.072-1.03.843-2.273.337-3.206-.098-.231.018-.559.275-.55l.018.026zm-15.984-10.656c.817-.168 1.776-.55 2.54-.231a.618.618 0 0 1 .417.432.611.611 0 0 1-.151.581 3.978 3.978 0 0 1-2.291.781h-.08c-.96.178-1.927.346-2.895.506-1.812.302-3.632.566-5.461.791-1.883.239-3.765.444-5.648.595l-.737.062a21.4 21.4 0 0 1-4.813 0c-.222 0-.187-.364 0-.427 1.749-.44 3.53-.737 5.328-.888a169.72 169.72 0 0 0 5.639-.772c1.873-.293 3.738-.604 5.603-.95l2.549-.48zm29.357-1.669a4.775 4.775 0 0 0-2.273-.498c-1.332.214-2.522 1.51-3.552 2.371l.533-.106c2.708-.524 6.305-1.083 8.578.639.188-.263.4-.51.63-.737l.063-.062.124-.133-.284-.098-1.483-.595-2.336-.781zM67.206 87.482c-.115-1.439 2.123-1.43 2.23 0a15.78 15.78 0 0 1-1.963 8.88v.053c.941.488 1.9.96 2.868 1.385a44.728 44.728 0 0 0 3.81 1.439c1.163.382 2.61.524 3.552 1.305 2.069 1.652 1.296 5.08.888 7.3l-.063.346a5.79 5.79 0 0 0 .142 3.41 9.18 9.18 0 0 0 2.478 2.877l.187.169c.91.771 1.706 1.668 2.362 2.664a18.614 18.614 0 0 1 2.095-3.117c.569-.746.16-.995-.248-1.723a3.462 3.462 0 0 1-.453-2.255 5.332 5.332 0 0 1 2.584-3.348c1.385-.95 2.94-1.652 4.378-2.531a59.696 59.696 0 0 0 8.409-6.216c.071-.062.196 0 .142.106a32.733 32.733 0 0 1-7.397 8.09c-1.19.888-2.45 1.696-3.712 2.496l-.364.239a3.446 3.446 0 0 0-1.367 1.324c-.231.568.257.994.524 1.456.843 1.483.435 2.868-.56 4.12l-.044.062a9.203 9.203 0 0 0-2.105 3.917c-.772 3.356.302 6.855 1.43 9.999v.124c.604 1.705 1.252 3.383 1.776 5.115l.142.47a7.772 7.772 0 0 1 .337 4.787.693.693 0 0 1-1.252.169c-1.11-1.847-1.385-4.059-2.086-6.092-.702-2.034-1.448-3.907-2.105-5.888a18.985 18.985 0 0 1-1.101-7.992v-.044l-.213-.471a10.18 10.18 0 0 0-2.211-3.392 21.382 21.382 0 0 1-3.188-3.277c-1.892-2.77-.72-5.861-.498-8.88v-.364a2.664 2.664 0 0 0-.346-1.927c-.462-.488-1.545-.622-2.167-.835a34.477 34.477 0 0 1-4.644-2.007 29.661 29.661 0 0 1-4.067-2.54l-.648-.488a11.188 11.188 0 0 1-2.771-2.664c-.08-.115.053-.31.195-.257a24.814 24.814 0 0 1 3.268 1.847.666.666 0 0 1 .054-.116 13.746 13.746 0 0 0 1.731-7.752l-.009.027zm36.578 16.437c.461-1.252 2.539-1.155 2.45.337a9.527 9.527 0 0 1-.985 3.206l-.054.115a19.872 19.872 0 0 1-1.616 3.082 38.028 38.028 0 0 1-4.138 5.328 6.365 6.365 0 0 1-5.24 2.273 5.952 5.952 0 0 1-2.521-.719c-.888-.524-1.9-2.078-3.064-1.705-.106 0-.213-.125-.115-.204 1.34-1.075 2.86.595 4.138.994a4.696 4.696 0 0 0 5.16-1.625 52.264 52.264 0 0 0 3.551-5.23 27.272 27.272 0 0 0 1.501-2.806c.524-.986.577-2.078.941-3.073l-.008.027zm-3.073-7.708a.214.214 0 0 1 .076-.223.212.212 0 0 1 .235-.017 29.59 29.59 0 0 1 2.46 1.998 68.146 68.146 0 0 0 2.726 2.167c1.341 1.039-.213 2.939-1.394 1.776a15.297 15.297 0 0 1-4.103-5.701zm-4.83-6.056a1.119 1.119 0 0 1 2.166.55v.044a5.842 5.842 0 0 0 2.025 6.003l.062.054c1.119.888-.47 2.468-1.58 1.58a8.054 8.054 0 0 1-2.71-8.25l.036.019z" fill="#060606"/>
    <path fill-rule="evenodd" clip-rule="evenodd" d="M117.947 35.444c-3.685-22.369-31.853-26.4-50.208-21.685-.346-4.307-3.046-8.108-6.42-10.656-14.333-10.337-31.303 7.22-27.902 22.342.604 4.591 4.263 9.768 9.378 9.031-6.43 12.193-8.943 36.782 5.221 44.4 1.368.978 1.59 2.949 2.664 4.219 1.705 2.051 8.996 4.662 12.939 2.566a10.116 10.116 0 0 0 4.342 2.664c8.64 6.936 21.259 8.498 31.782 5.64 6.482-1.102 13.196-4.032 16.526-10.018 2.833-4.555 1.527-9.901.231-14.723a64.656 64.656 0 0 1-1.146-7.992 3.86 3.86 0 0 0 .595-1.971c.497-2.407 1.59-4.645 2.131-7.042a40.506 40.506 0 0 0-.115-16.757" fill="#F9CCCC"/>
    <path fill-rule="evenodd" clip-rule="evenodd" d="M37.858 11.21A16.49 16.49 0 0 1 53.53 2.162c6.394.48 11.287 4.901 12.432 12.032v.222l.071.462h-.062v.053l.053.089c.072.107.142.222.25.373l.141.204.48.675v.053l.106.142.205-.07a46.026 46.026 0 0 1 31.142.257l.302.115.275.107h.16a23.621 23.621 0 0 1 14.342 11.091l.097.178.107.169a35.642 35.642 0 0 1 4.502 18.275V47.015a18.72 18.72 0 0 1-1.35 5.097l-.106.276-.16.408-.506 1.279-.125.31-1.429 3.784.266-3.792c0-.427.044-.8.053-1.359V49.777a10.973 10.973 0 0 0-3.312-6.43l-.098-.106-.106-.098-.116-.115a35.12 35.12 0 0 0-5.754-4.351l-.124-.09-1.714-1.11-.64-.417c-1.403-.932-2.264-1.536-3.17-2.237l-.195-.151-.151-.125a18.753 18.753 0 0 1-3.739-3.791l-.088-.125-.187-.266.133-.284v-.613c.005-.065.005-.13 0-.195v-.187.098c-1.82 5.266-6.127 9.652-12.2 12.894l-.187.097-.214.116a45.572 45.572 0 0 1-19.5 5.008h-.409l-.15-.133a.96.96 0 0 0-1.466.977 66.992 66.992 0 0 1 1.137 24.092v.497l-.116.64-.053.381-.23 1.536-.108.657v.276a12.433 12.433 0 0 1-1.776 5.088l-.08.124-.088.08-.089.09a1.777 1.777 0 0 0-.337.434c.446.102.91.086 1.35-.044h.124l.39-.133.267.39.089.107.497.675.23.302.533.684-.488.346c-1.652 1.136-3.96.888-6.411-.16l-.098-.044a9.768 9.768 0 0 1-3.197-2.966l-.142-.187-.568-.72-.213-.274-.4-.489-.044-.053-.151-.169v-.07a6.838 6.838 0 0 0-3.046-2.967l-.213-.124-.142-.089c-3.925-2.726-6.217-7.024-7.211-12.6a50.132 50.132 0 0 1 0-14.777v-.533a37.714 37.714 0 0 1 3.96-12.93l.107-.204.098-.178-.489-.39-.204-.16-.4-.284-.062-.045h-.426a8.365 8.365 0 0 1-4.44-1.909l-.107-.089-.097-.097a13.82 13.82 0 0 1-3.659-9.928c.028-3.62.91-7.184 2.575-10.399l.08-.15.116-.17z" fill="#414141"/>
    <path fill-rule="evenodd" clip-rule="evenodd" d="M117.654 46.837c-.213 2.664-1.358 5.124-2.308 7.637.106-1.483.053-3.037.159-4.582-1.11-9.661-14.208-12.21-19.323-19.536.196-.409.267-4.103-.497-3.064-2.948 12.92-20.424 19.403-32.44 19.43a1.51 1.51 0 0 0-2.361 1.527 66.421 66.421 0 0 1 1.03 24.128c-.542 2.824-.63 6.216-2.318 8.658-1.776 1.714.355 1.847 1.545 1.465.338.47.684.888 1.03 1.368-1.705 1.18-4.191.541-5.958-.25-1.963-1.038-3.09-3.063-4.511-4.679a7.672 7.672 0 0 0-3.472-3.321c-8.428-5.737-8.214-18.338-6.998-27.449 3.552-27.093 33.522-40.173 57.605-30.76 13.001 3.339 19.093 16.81 18.817 29.41v.018zM39.225 31.475c-5.141-5.133-4.102-14.102-.888-20.025C44.811-.91 63.201-.51 65.413 14.478a40.2 40.2 0 0 0-22.014 18.853 7.859 7.859 0 0 1-4.192-1.856h.018zm78.705 3.96c-3.686-22.369-31.853-26.4-50.209-21.694-.346-4.307-3.045-8.107-6.42-10.603C46.97-7.207 30 10.35 33.4 25.481c.604 4.582 4.262 9.768 9.377 9.03C36.348 46.705 33.835 71.285 48 78.913c1.367.977 1.59 2.957 2.664 4.227 1.705 2.043 8.995 4.654 12.938 2.567.941 1.154 6.216 4.662 5.879 1.216-.391-.888-1.608-1.163-2.407-1.625a13.586 13.586 0 0 1-4.324-3.81c3.631-10.265 3.356-21.693 1.323-32.26 12.148-.614 26.454-5.95 31.817-17.681 3.623 8.534 14.865 9.635 17.707 19.18.169 5.01-.888 9.947-.124 14.964.222 4.91 2.815 9.768 1.314 14.67-4.182 10.656-19.243 12.201-29.189 11.757-2.362-.195-4.325-1.474-6.27-2.664a1.36 1.36 0 0 0-1.837 1.838c2.726 3.819 8.33 4.147 12.636 4.014 11.162-.666 27.297-3.978 27.875-17.76-.364-5.48-2.513-10.727-2.664-16.26a3.837 3.837 0 0 0 .595-1.962c.497-2.416 1.589-4.644 2.131-7.05a40.48 40.48 0 0 0-.116-16.749" fill="#060606"/>
    <path fill-rule="evenodd" clip-rule="evenodd" d="M94.992 79.046a7.655 7.655 0 0 1-3.215-2.47 1.52 1.52 0 0 1-.301-1.154 1.67 1.67 0 0 1 .648-1.039 1.5 1.5 0 0 1 1.163-.31 1.447 1.447 0 0 1 .977.648l.053.08a5.214 5.214 0 0 0 1.856 1.554 4.2 4.2 0 0 0 2.291.4 6.216 6.216 0 0 0 3.739-2.14l.426-.445a.64.64 0 0 1 .346-.266.685.685 0 0 1 .48 0 .767.767 0 0 1 .382.284.665.665 0 0 1 .115.462 4.773 4.773 0 0 1-1.589 3.055 6.796 6.796 0 0 1-7.37 1.332v.008zM99.53 60.92c1.421.888 3.552 2.868 2.051 5.009-1.776 1.882-4.378-.276-5.648-1.253-1.18-.754-2.504 1.19-1.412 2.07 9.2 6.81 12.93-5.595 5.728-6.838-.79-.107-1.083.781-.72 1.012zm-16.482-7.92c.16-1.946 3.117-2.39 3.41-.463a7.876 7.876 0 0 1-.817 4.858 1.447 1.447 0 0 1-2.744-.56c-.11-1.28-.06-2.569.151-3.836zm22.529-.889a1.581 1.581 0 0 1 1.723-.702c2.229.649 1.572 3.819.79 5.329a1.544 1.544 0 0 1-1.136.744 1.553 1.553 0 0 1-1.288-.434c-1.012-1.207-1.501-3.605-.213-4.786.035 0 .08-.062.124-.124v-.027zm-19.962-7.62.355-.061c1.092-.187 2.442-.364 3.215.506a1.279 1.279 0 0 1 0 1.776c-.968.781-2.034.48-3.197.542-.945.057-1.88.218-2.789.48a18.808 18.808 0 0 0-5.381 2.788c-.23.15-.462-.143-.355-.356a11.127 11.127 0 0 1 4.857-4.52 11.831 11.831 0 0 1 3.295-1.154zm17.938-.887.266.053c2.939.613 6.749 1.838 8.134 4.724.053.409 0 .498-.044.551a.337.337 0 0 1-.24.169h-.151a8.99 8.99 0 0 1-1.625-.63l-.533-.267a14.17 14.17 0 0 0-1.891-.8 21.494 21.494 0 0 0-4.298-.95 1.884 1.884 0 0 1-.888-.328 1.317 1.317 0 0 1-.489-.737 1.343 1.343 0 0 1 .151-1.101 1.36 1.36 0 0 1 .684-.586 1.59 1.59 0 0 1 .915-.08l.009-.018z" fill="#060606"/>
    <path fill-rule="evenodd" clip-rule="evenodd" d="M115.754 64.864c-.355-4.44-6.003-6.385-8.818-6.944-9.378-2.202-17.343 3.445-28.523 3.552-1.965 0-3.924-.19-5.852-.568-7.61-1.723-15.212-3.553-22.67-5.835a1.528 1.528 0 0 0-.676 2.505c7.157 2.54 18.098 4.813 23.87 5.07a25.37 25.37 0 0 1-9.493 19.101c8.658 9.573 28.834 12.725 40.715 7.7 5.844-1.777 12.006-17.459 11.447-24.59" fill="#fff"/>
    <path fill-rule="evenodd" clip-rule="evenodd" d="M49.286 55.3c-.328 0-.133-.95.587-.817 9.35 2.193 21.001 6.358 30.618 6.332 7.104-.24 13.4-4.174 20.513-4.2 4.778.088 10.87.772 14.209 4.608 4.44 13.995-5.524 33.034-21.153 33.15l-2.957-.223c-10.088-.737-21.135-1.927-27.635-10.487l-.053.044a1.777 1.777 0 0 1-.089-2.788v.044a.363.363 0 0 0 .044-.08c.32-.328.684-.639 1.013-.887a22.856 22.856 0 0 0 8.276-16.642c-1.616.444-28.763-5.186-23.914-6.562 3.463 1.172 6.953 2.229 10.505 3.072a.125.125 0 0 1 .178.045 104.183 104.183 0 0 0 13.24 2.175v-.639A241.466 241.466 0 0 1 49.286 55.3zm64 5.683c-16.216-8.187-24.26 3.908-39.961.578 1.643 7.326-2.407 15.211-7.912 19.997 7.992 6.918 11.455 7.993 21.943 9.094l1.367.16c2.062.275 4.137.444 6.216.506 10.719-.773 18.808-11.926 20.025-22.04v-.276a16.793 16.793 0 0 0-1.199-7.628.886.886 0 0 1-.479-.39zm-22.574 6.43a.7.7 0 0 1 .782 1.02c-1.12 1.777-3.863 2.407-5.781 2.665-2.188.314-4.42.075-6.492-.693-.106 0-.106-.24 0-.222 2.018.229 4.062.072 6.021-.462 2.007-.382 3.605-1.696 5.47-2.309zm15.23-1.244c0-.328 1.607.622 1.865.746 1.98 1.19 4.262 1.279 6.438 1.776a.541.541 0 0 1 0 1.04c-2.718.727-6.838-1.209-8.303-3.562z" fill="#060606"/>
    <path fill-rule="evenodd" clip-rule="evenodd" d="M116.322 62.067a8.47 8.47 0 0 1-9.111 1.776c-7.779-3.25-3.969-13.4 2.034-16.118.87-.304 1.76-.55 2.664-.737.08 0 .257.08.479 0 6.616.746 8.126 11.02 3.934 15.097v-.018zm-25.095.621a9.617 9.617 0 0 1-11.189 2.86c-7.663-3.02-4.946-12.015.302-15.54 11.082-4.165 15.656 6.429 10.887 12.68zm-16.624-7.512.125-.053-.045.106a.163.163 0 0 0-.062 0l-.018-.053zm47.012-3.614a3.473 3.473 0 0 0-2.043.541c-1.278-4.306-5.994-8.294-10.096-5.39a11.406 11.406 0 0 0-6.98 6.403c-2.451-1.457-6.314-.835-8.445 1.1-1.394-4.608-4.822-6.215-8.88-6.464-4.44-.728-8.88 3.605-10.284 7.104-1.154-.133-2.877-.497-3.96.213-7.033-1.847-19.34-2.868-20.77-1.838-1.022.39-1.581 2.797-.152 2.93 1.244-.177-.15-1.776 1.102-1.944 6.669-.409 13.133.932 19.731 1.5.586.79 2.487 1.057 3.508.738-1.599 5.887 1.847 9.9 7.015 11.1 7.992 1.838 14.972-5.328 12.876-12.779a11.543 11.543 0 0 1 7.859-.515c-4.44 16.25 21.748 15.523 17.663-1.572 2.717 1.35 3.312-.825 1.882-1.1" fill="#060606"/>
</svg>
