<svg width="176" height="201" viewBox="0 0 176 201" fill="none" xmlns="http://www.w3.org/2000/svg">
    <path fill-rule="evenodd" clip-rule="evenodd" d="M121.366 24.838c2.759-3.238 4.626-7.206 4.314-11.653-.899-12.81-18.733-9.993-22.202-3.527-3.469 6.466-3.056 22.868 1.427 24.023 1.788.461 5.597-.668 9.473-3.004l-2.433 17.214h14.367l-4.946-23.053z" fill="#915B3C"/>
    <path fill-rule="evenodd" clip-rule="evenodd" d="M122.471 27.721c1.803-8.022 6.94-13.49 6.156-17.076-.523-2.39-1.917-3.877-4.183-4.46-1.171-4.739-4.949-6.755-11.334-6.047-9.578 1.061-15.424 5.039-12.899 13.791 2.32 0 5.122-.84 8.996.599 1.229.456 2.108 1.87 2.637 4.244h1.75c1.699-2.816 3.375-3.851 5.026-3.105 1.651.747 2.027 2.56 1.126 5.44l.862 6.614h1.863z" fill="#191847"/>
    <path fill-rule="evenodd" clip-rule="evenodd" d="M166.422 122.721H97.578c-5.29 0-9.578 4.289-9.578 9.578v55.075a9.578 9.578 0 0 0 9.578 9.578h68.844a9.578 9.578 0 0 0 9.578-9.578v-55.075c0-5.289-4.288-9.578-9.578-9.578zm-9.578 16.762a2.394 2.394 0 0 1 2.394 2.395v35.918a2.395 2.395 0 0 1-2.394 2.395h-49.688a2.395 2.395 0 0 1-2.394-2.395v-35.918a2.394 2.394 0 0 1 2.394-2.395h49.688z" fill="#C5CFD6"/>
    <path fill-rule="evenodd" clip-rule="evenodd" d="M28.64 193.959c11.802-14.412 19.788-25.097 23.958-32.055 7.139-11.912 12.981-22.512 14.825-26.561 4.397-9.655-10.122-14.177-13.408-9.673-4.974 6.816-15.595 28.266-31.865 64.349l6.49 3.94z" fill="#B28B67"/>
    <path fill-rule="evenodd" clip-rule="evenodd" d="m52.825 189.769 21.966-55.292c4.698-10.08-17.99-16.705-21.442-12.015-7.839 10.65-26.47 52.661-28.805 55.833l28.281 11.474z" fill="#2F3676"/>
    <path fill-rule="evenodd" clip-rule="evenodd" d="M111.327 178.68c-4.279-6.241-19.842-27.24-28.319-35.928a649.24 649.24 0 0 0-7.06-7.126c-6.683-6.637-19.99 4.519-13.32 10.565 16.61 15.056 40.846 35.381 42.871 37.193 2.838 2.54 8.517-.781 5.828-4.704z" fill="#915B3C"/>
    <path fill-rule="evenodd" clip-rule="evenodd" d="M110.327 175.861c1.474 1.213 2.433 2.204 2.876 2.973.54.935 1.172 2.389 1.896 4.362l-29.24 16.883c-2.211-2.074-2.555-3.683-1.034-4.829a183.86 183.86 0 0 0 3.767-2.898l10.093-13.905a.598.598 0 0 1 .836-.133l.013.01 2.097 1.615c1.924-.168 3.36-.526 4.307-1.073.77-.444 1.654-1.369 2.651-2.774a1.198 1.198 0 0 1 1.738-.231zM33.717 191.805c.67 1.788 1.004 3.126 1.004 4.013 0 1.08-.18 2.655-.54 4.726H.418c-.877-2.9-.37-4.466 1.52-4.698 1.89-.231 3.46-.44 4.711-.626l15.693-6.996a.598.598 0 0 1 .797.318l1.01 2.447c1.75.817 3.171 1.225 4.265 1.225.89 0 2.117-.359 3.683-1.077a1.197 1.197 0 0 1 1.62.668z" fill="#E4E4E4"/>
    <path fill-rule="evenodd" clip-rule="evenodd" d="M82.695 137.238c18.257-2.974 30.485-5.008 36.686-6.101 17.673-3.116 22.827-12.627 19.78-33.378h-32.563c-4.31 1.245-22.315 8.941-54.018 23.089-5.703 2.832-4.641 11.181-3.599 13.931.043.112 9.658 16.589 28.847 49.43l26.638-16.97-21.82-28.001c-.577-1.161-.56-1.827.05-2z" fill="#5C63AB"/>
    <path fill-rule="evenodd" clip-rule="evenodd" d="m80.349 89.923-19.096 14.022c-5.179 1.397-9.506 3.136-12.98 5.216-.821.748-1.813 2.263 1.59 2.001 3.405-.262 6.997-.384 7.467.777.47 1.161-1.59 2.55-.64 4.116.632 1.045 3.623-1.574 8.97-7.856l18.91-7.842-4.221-10.434zm73.317.483-12.51.05c7.725 24.935 11.895 38.166 12.51 39.692 1.386 3.433-1.546 8.661-2.799 11.47 4.082 1.827 3.647-4.938 8.798-2.542 4.701 2.187 8.277 6.15 13.708 2.798.668-.412 1.399-1.963-.369-3.175-4.404-3.021-10.752-8.306-11.609-10.046-1.17-2.373-3.746-15.122-7.729-38.246z" fill="#915B3C"/>
    <path fill-rule="evenodd" clip-rule="evenodd" d="m118.114 37.913-5.176-.888c-19.206 16.592-27.095 48.466-50.637 65.351l5.666 7.024c40.842-5.057 50.964-43.936 50.147-71.487z" fill="#E87613"/>
    <path fill-rule="evenodd" clip-rule="evenodd" d="M140.68 102.966H94.877c-2.093 0-1.698-3.022-1.396-4.547 3.492-17.6 17.123-36.573 17.123-61.626l13.211-2.072c10.928 17.575 14.707 39.214 16.865 68.245z" fill="#DDE3E9"/>
    <path fill-rule="evenodd" clip-rule="evenodd" d="M140.312 51.997c1.919-.552 3.438-1.838 4.559-3.86 4.829-8.713 3.085-13.51-2.076-15.087-5.16-1.577-9.763 1.671-17.985 1.671-.447 0-.857.028-1.229.084l-4.135.236c-11.867 40.217-15.14 67.049-9.819 80.496h36.051c2.136 4.981 4.18 9.172 6.132 12.572h9.823c.924-29.892-6.183-55.263-21.321-76.112z" fill="#FF9B21"/>
    <path fill-rule="evenodd" clip-rule="evenodd" d="M137.828 94.883c-1.134 9.486-2.977 16.371-5.528 20.655h13.378c-2.491-5.81-5.108-12.695-7.85-20.655z" fill="#000" fill-opacity=".1"/>
</svg>
