<svg width="15" height="15" viewBox="0 0 15 15" fill="none" xmlns="http://www.w3.org/2000/svg">
    <path d="M13.452 0h-7.68c-.847 0-1.536.66-1.536 1.47v4.105L.622 9.034a.712.712 0 0 0-.167.8.77.77 0 0 0 .71.454v3.675c0 .406.344.734.768.734H14.22c.425 0 .768-.328.768-.735V1.47c0-.81-.689-1.47-1.536-1.47zM7.308 13.228H2.701V9.123l2.303-2.205 2.304 2.205v4.105zm6.144 0H8.844v-2.94c.31 0 .592-.178.71-.453a.712.712 0 0 0-.167-.801l-3.615-3.46V1.47h7.68v11.758z" fill="#AFAFAF"/>
    <path d="M7.308 2.94h1.536v1.47H7.308V2.94zm3.072 0h1.536v1.47H10.38V2.94zm0 2.962h1.536v1.447H10.38V5.902zm0 2.916h1.536v1.47H10.38v-1.47zm-6.144.735h1.536v1.47H4.236v-1.47z" fill="#AFAFAF"/>
</svg>
