<svg width="26" height="26" viewBox="0 0 26 26" fill="none" xmlns="http://www.w3.org/2000/svg">
    <path d="M1.984 5.255c.497-2.402 2.48-4.111 4.772-4.111h11.712c2.292 0 4.276 1.709 4.773 4.111l.18.869a33.78 33.78 0 0 1 0 13.669l-.18.868c-.497 2.402-2.481 4.111-4.773 4.111H6.756c-2.291 0-4.275-1.709-4.772-4.111l-.18-.869a33.785 33.785 0 0 1 0-13.668l.18-.869z" stroke="#A3A3A3" stroke-width="2" stroke-linecap="round" stroke-linejoin="round"/>
    <path d="M1 14.271h7.746c0 1.313 1.19 3.939 4.162 3.939 2.973 0 4.162-2.626 4.162-3.939h7.152" stroke="#A3A3A3" stroke-width="2" stroke-linejoin="round"/>
</svg>
