<svg width="235" height="45" viewBox="0 0 235 45" fill="none" xmlns="http://www.w3.org/2000/svg">
    <path d="M50.05 5.434h9.495V28.54h12.292v6.964H50.05V5.434z" fill="#EE1414"/>
    <path d="m97.357 11.237-6.33 20.31c-1.232 3.904-2.34 6.735-3.324 8.494-.985 1.794-1.97 3.042-2.955 3.746-.562.386-1.46.685-2.69.897a22.503 22.503 0 0 1-3.904.316c-2.11 0-3.798-.193-5.064-.58-.036-.844 0-1.882.105-3.113.106-1.196.246-2.216.422-3.06 1.477.07 2.92.106 4.326.106 1.055 0 1.846-.018 2.374-.053a38.711 38.711 0 0 0 1.477-3.218l-3.64-.211-8.124-23.634h9.548l4.22 16.987.053 1.002h.159l3.798-17.99h9.549z" fill="#EE1414"/>
    <path d="M115.063 11.237h9.443l-7.386 24.267h-12.503l-7.386-24.267h9.444l3.956 18.622h.528l3.904-18.622zM144.798 35.504h-11.87l-7.755-30.07h10.129l4.009 22.104h.264l4.273-22.104h9.918l4.379 22.104h.158l4.062-22.104h9.707l-7.755 30.07H152.5l-3.587-19.203h-.317l-3.798 19.203zM179.669 8.23a4.446 4.446 0 0 1-3.113-1.214c-.844-.809-1.266-1.776-1.266-2.901 0-1.126.422-2.093 1.266-2.902A4.446 4.446 0 0 1 179.669 0c1.195 0 2.215.404 3.059 1.213.844.81 1.266 1.776 1.266 2.902 0 1.125-.422 2.092-1.266 2.901-.844.81-1.864 1.214-3.059 1.214zm-4.537 3.007h9.021v24.267h-9.021V11.237zM208.251 27.274c0 3.13-1.003 5.381-3.007 6.753-1.97 1.372-4.784 2.057-8.441 2.057-2.568 0-5.522-.369-8.863-1.107.07-.704.229-1.706.475-3.007a88.86 88.86 0 0 1 .686-3.06c1.266.21 2.673.387 4.22.527 1.547.106 2.866.159 3.957.159.949 0 1.529-.053 1.741-.159.035-.035.07-.123.105-.264.07-.175.106-.351.106-.527 0-.703-.44-1.178-1.319-1.424-.282-.07-1.354-.37-3.218-.897-1.864-.528-3.394-1.477-4.59-2.849-1.161-1.407-1.741-3.148-1.741-5.223 0-1.09.246-2.303.739-3.64.492-1.336 1.02-2.18 1.582-2.532.422-.281 1.442-.563 3.06-.844 1.618-.317 3.113-.475 4.484-.475 2.919 0 5.856.211 8.81.633 0 .633-.088 1.706-.263 3.218-.176 1.477-.335 2.41-.475 2.796-2.99-.387-5.399-.58-7.228-.58-.949 0-1.565.053-1.846.158-.07.035-.141.14-.211.317-.071.14-.106.334-.106.58 0 .492.159.844.475 1.055.317.246 1.143.545 2.48.897 1.582.457 2.936.932 4.062 1.424a8.073 8.073 0 0 1 3.007 2.216c.879.985 1.319 2.25 1.319 3.798zM225.961 29.174c.879 0 2.515-.088 4.906-.264.317 0 .897-.035 1.741-.106l.792 5.434c-2.709 1.266-6.226 1.9-10.551 1.9-4.045 0-7.158-1.02-9.338-3.06-2.145-2.04-3.218-5.118-3.218-9.233 0-2.11.264-4.15.791-6.12.563-1.969 1.196-3.34 1.899-4.114.739-.774 2.111-1.442 4.115-2.005a21.985 21.985 0 0 1 5.962-.844c3.165 0 5.539.563 7.121 1.688 1.583 1.126 2.621 2.69 3.113 4.695.492 1.97.739 4.625.739 7.966-2.392.141-4.731.211-7.017.211h-7.491c0 1.126.229 1.97.686 2.533.492.562 1.178.932 2.057 1.107.879.141 2.11.212 3.693.212zm-5.908-12.134c-.212.105-.37.563-.475 1.372a28.938 28.938 0 0 0-.211 2.743h2.743c1.653 0 2.849-.018 3.587-.053 0-1.688-.246-2.884-.738-3.587-.457-.704-1.266-1.055-2.427-1.055-.95 0-1.776.193-2.479.58z" fill="#EE1414"/>
    <circle cx="19.614" cy="23.672" r="19.614" fill="#2D81AF"/>
    <path d="M16.472 37.342c-4.17-1.768-10.76-8.464-3.771-21.106 3.042 2.025 8.578 8.252 6.38 16.954-1.821-2.17-5.365-6.859-5.674-9.05.247 3.498 1.163 10.554 3.065 13.202z" fill="#FFD80E"/>
    <path d="M23.88 36.461c3.535-1.345 9.189-6.593 3.535-16.82-2.592 1.57-7.35 6.46-5.654 13.456 1.567-1.705 4.626-5.397 4.924-7.145-.268 2.794-1.16 8.422-2.804 10.51z" fill="#fff"/>
    <circle cx="16.358" cy="12.914" r="3.364" fill="#FFD80E"/>
    <circle cx="23.927" cy="17.119" r="2.523" fill="#fff"/>
</svg>
