<svg width="23" height="23" viewBox="0 0 23 23" fill="none" xmlns="http://www.w3.org/2000/svg">
    <path fill-rule="evenodd" clip-rule="evenodd" d="M11.5 21.563a10.063 10.063 0 1 0 0-20.127 10.063 10.063 0 0 0 0 20.127zm0 1.437a11.5 11.5 0 1 0 0-23 11.5 11.5 0 0 0 0 23z" fill="#fff"/>
    <path fill-rule="evenodd" clip-rule="evenodd" d="M5.75 11.5a.719.719 0 0 0 .719.718h8.327l-3.086 3.085a.718.718 0 1 0 1.018 1.018l4.312-4.313a.718.718 0 0 0 0-1.018l-4.312-4.312a.72.72 0 1 0-1.018 1.018l3.086 3.084H6.47a.719.719 0 0 0-.719.72z" fill="#fff"/>
</svg>
