<svg width="21" height="25" viewBox="0 0 21 25" fill="none" xmlns="http://www.w3.org/2000/svg">
    <path d="M19.395 17.398c-1.358-1.662-2.316-2.508-2.316-7.09 0-4.197-2.143-5.692-3.907-6.418-.234-.096-.455-.317-.526-.558-.31-1.053-1.177-1.98-2.33-1.98s-2.02.928-2.327 1.981c-.071.243-.292.46-.526.557-1.766.727-3.906 2.217-3.906 6.418-.003 4.582-.962 5.428-2.32 7.09-.563.689-.07 1.723.914 1.723h16.335c.98 0 1.469-1.037.91-1.723zM13.7 19.121v.846a3.384 3.384 0 1 1-6.768 0v-.846" stroke="#000" stroke-width="1.5" stroke-linecap="round" stroke-linejoin="round"/>
</svg>
