<svg width="19" height="20" viewBox="0 0 19 20" fill="none" xmlns="http://www.w3.org/2000/svg">
    <path d="M16.904 10.523V9.47l1.32-1.154a1.375 1.375 0 0 0 .26-1.753l-1.622-2.75a1.375 1.375 0 0 0-1.189-.688 1.374 1.374 0 0 0-.44.069l-1.67.564a7.802 7.802 0 0 0-.901-.516l-.35-1.733A1.375 1.375 0 0 0 10.935.403H7.72a1.375 1.375 0 0 0-1.375 1.106l-.351 1.733a7.893 7.893 0 0 0-.907.516l-1.637-.592a1.375 1.375 0 0 0-.44-.04 1.375 1.375 0 0 0-1.19.687L.198 6.563A1.375 1.375 0 0 0 .48 8.288l1.3 1.19v1.052l-1.3 1.155a1.375 1.375 0 0 0-.282 1.753l1.623 2.75a1.374 1.374 0 0 0 1.19.687c.149.001.297-.022.44-.069l1.67-.563c.288.191.59.364.9.515l.351 1.733a1.375 1.375 0 0 0 1.375 1.107h3.245a1.374 1.374 0 0 0 1.375-1.107l.35-1.733a7.89 7.89 0 0 0 .908-.515l1.664.563a1.375 1.375 0 0 0 1.63-.619l1.567-2.75a1.375 1.375 0 0 0-.282-1.725l-1.3-1.19zm-1.23 4.977-2.36-.797a6.09 6.09 0 0 1-1.862 1.079l-.488 2.468H7.719l-.488-2.44a6.436 6.436 0 0 1-1.857-1.08l-2.365.77-1.622-2.75 1.87-1.65a6.119 6.119 0 0 1 0-2.152L1.387 7.25 3.009 4.5l2.358.798a6.091 6.091 0 0 1 1.864-1.08l.488-2.468h3.245l.488 2.44a6.437 6.437 0 0 1 1.856 1.08l2.365-.77 1.623 2.75-1.87 1.65a6.12 6.12 0 0 1 0 2.152l1.87 1.698-1.623 2.75z" fill="#000"/>
    <path d="M9.342 14.125A4.125 4.125 0 1 1 13.467 10a4.084 4.084 0 0 1-4.125 4.125zm0-6.875A2.688 2.688 0 0 0 6.592 10a2.688 2.688 0 0 0 2.75 2.75 2.688 2.688 0 0 0 2.75-2.75 2.688 2.688 0 0 0-2.75-2.75z" fill="#000"/>
</svg>
