<svg width="25" height="28" viewBox="0 0 25 28" fill="none" xmlns="http://www.w3.org/2000/svg">
    <path d="M18.002 22.1a9.398 9.398 0 0 1-3.07 2.182 8.855 8.855 0 0 1-3.614.752v.125c-2.54-.012-4.924-1.08-6.716-3.005-1.804-1.937-2.795-4.513-2.795-7.25 0-2.736.991-5.312 2.795-7.249 1.57-1.687 3.595-2.717 5.782-2.953l.138-.015v11.13l10.224.125v.125h-.012c-.24 2.28-1.189 4.39-2.732 6.032zm0 0 .091.085-.09-.086zm-5.798-8.233v.125H22.5c.048 0 .103.045.103.12v.793a12.788 12.788 0 0 1-.887 4.707 12.112 12.112 0 0 1-2.41 3.84 11.18 11.18 0 0 1-3.643 2.618 10.52 10.52 0 0 1-4.299.914c-1.502.003-2.99-.32-4.374-.95a11.178 11.178 0 0 1-3.57-2.586h-.001a12.127 12.127 0 0 1-2.44-3.917 12.82 12.82 0 0 1-.853-4.626 12.787 12.787 0 0 1 .886-4.708 12.111 12.111 0 0 1 2.41-3.839 11.179 11.179 0 0 1 3.644-2.619 10.52 10.52 0 0 1 4.298-.914h.739c.048 0 .102.045.102.119v10.923zm9.357-9.935c1.85 1.98 3 4.606 3.24 7.389l.074.86c.006.076-.05.127-.103.127l-10.909.03c-.048 0-.102-.045-.102-.118V.5c0-.078.058-.121.11-.117l.804.08c2.6.26 5.036 1.485 6.886 3.47zm-6.124 6.463v.125h.125l7.284-.021h.151l-.029-.15a10.44 10.44 0 0 0-2.587-5.129c-1.313-1.403-2.977-2.368-4.792-2.776l-.152-.035v7.986z" fill="#AFAFAF" stroke="#fff" stroke-width=".25"/>
</svg>
