<svg width="20" height="28" viewBox="0 0 20 28" fill="none" xmlns="http://www.w3.org/2000/svg">
    <path d="M14.75 11.212c0 2.84-2.147 5.12-4.75 5.12s-4.75-2.28-4.75-5.12c0-2.84 2.147-5.12 4.75-5.12s4.75 2.28 4.75 5.12zm-2 0c0-1.602-1.217-2.935-2.75-2.935S7.25 9.61 7.25 11.212s1.217 2.935 2.75 2.935 2.75-1.333 2.75-2.935z" fill="#EE1414" stroke="#A3A3A3" stroke-width=".5"/>
    <path d="M17.75 11.218c0-4.57-3.46-8.311-7.75-8.311s-7.75 3.741-7.75 8.305c-.013 3.055 1.391 5.935 3.03 8.257 1.643 2.325 3.541 4.116 4.556 5.001l.164.143.164-.142c1.016-.885 2.914-2.676 4.556-5 1.64-2.32 3.043-5.199 3.03-8.253zm0 0h-.25.25zM9.427 26.875v-.001c-.182-.138-2.492-1.927-4.75-4.754C2.415 19.288.232 15.449.25 11.206.25 5.41 4.64.721 10 .721s9.75 4.69 9.75 10.49v.001c.018 4.24-2.165 8.077-4.427 10.908-2.258 2.826-4.568 4.615-4.75 4.753a.94.94 0 0 1-.573.199.94.94 0 0 1-.573-.198zm1.298.198c.38-.289 9.311-7.215 9.275-15.86L9.275 27.072c.218.167.471.25.725.25s.508-.083.725-.25z" fill="#EE1414" stroke="#A3A3A3" stroke-width=".5"/>
</svg>
