<svg width="46" height="46" viewBox="0 0 46 46" fill="none" xmlns="http://www.w3.org/2000/svg">
    <circle cx="23" cy="23" r="23" fill="#FFEAD1"/>
    <path d="m18.328 19.81.067-.072v-5.072c0-.861.648-1.53 1.408-1.53h8.29c.76 0 1.407.669 1.407 1.53v15.136c0 .371-.275.64-.579.64H15.658c-.303 0-.579-.27-.579-.64V25.1h-.25a.58.58 0 0 1-.533-.39.689.689 0 0 1 .13-.71l3.902-4.19zm3.133 9.351h.25V23.84l-.067-.073-2.487-2.67-.183-.197-.183.197-2.487 2.67-.067.073v5.321h5.224zm6.631 0h.25V14.416h-8.79v5.322l.068.072L23.522 24c.17.183.224.464.13.71v.001a.58.58 0 0 1-.533.389h-.25v4.061h5.223z" fill="#000" stroke="#000" stroke-width=".5"/>
    <path d="M21.71 16.697h1.158v1.28H21.71v-1.28zm3.316 0h1.158v1.28h-1.158v-1.28zm0 3.588h1.158v1.253h-1.158v-1.253zm0 3.534h1.158v1.28h-1.158v-1.28zm-6.631.89h1.157v1.281h-1.157v-1.28z" fill="#000" stroke="#000" stroke-width=".5"/>
</svg>
