<svg width="46" height="46" viewBox="0 0 46 46" fill="none" xmlns="http://www.w3.org/2000/svg">
    <circle cx="23" cy="23" r="23" fill="#FFF3F3"/>
    <path d="M29.39 21.53h-7.462a.468.468 0 0 0-.466.467v4.198h-5.596v-6.996a.468.468 0 0 0-.467-.466h-.933a.468.468 0 0 0-.466.466v10.26c0 .257.21.467.466.467h.933c.257 0 .467-.21.467-.467V28.06H30.79v1.4c0 .256.21.466.466.466h.933c.256 0 .466-.21.466-.467v-4.663a3.263 3.263 0 0 0-3.264-3.265zM17.965 17.8h3.676l.804 1.609a.466.466 0 0 0 .834 0l1.449-2.898.644 1.289h3.553a.468.468 0 0 0 0-.933h-2.976l-.804-1.609a.466.466 0 0 0-.834 0l-1.449 2.897-.58-1.16a.234.234 0 0 0-.21-.128h-4.107a.234.234 0 0 0-.233.233v.467c0 .128.105.233.233.233zm.7 7.462a1.867 1.867 0 0 0 1.865-1.866 1.867 1.867 0 0 0-1.865-1.865 1.867 1.867 0 0 0-1.866 1.865c0 1.03.837 1.866 1.866 1.866z" fill="#000"/>
</svg>
