<svg width="25" height="28" viewBox="0 0 25 28" fill="none" xmlns="http://www.w3.org/2000/svg">
    <path d="M20.212 3.07a7.993 7.993 0 0 1 1.601 2.574 8.45 8.45 0 0 1 .563 3.038 8.45 8.45 0 0 1-.563 3.037 7.992 7.992 0 0 1-1.6 2.574l.085.08-.086-.08c-.105.113-.229.202-.365.262a1.05 1.05 0 0 1-.855 0c-.136-.06-.26-.15-.366-.262a1.229 1.229 0 0 1-.245-.396 1.304 1.304 0 0 1 0-.938 1.23 1.23 0 0 1 .245-.396c.96-1.03 1.498-2.427 1.498-3.881 0-1.455-.538-2.851-1.497-3.882a1.23 1.23 0 0 1-.247-.396 1.304 1.304 0 0 1 0-.938 1.23 1.23 0 0 1 .246-.396l-.091-.085.091.085c.105-.113.23-.202.365-.262a1.051 1.051 0 0 1 .856 0c.136.06.26.15.365.262zM24.13 22.4l-3.808-.332.033-.12a1.137 1.137 0 0 1-.691-.553 1.304 1.304 0 0 1-.129-.926l.004-.014c.075-.31.26-.573.512-.735.255-.165.558-.213.845-.136 1.617.434 2.642 1.542 3.234 2.816zM10 3.186c-1.362 0-2.667.582-3.627 1.613-.96 1.031-1.498 2.428-1.498 3.883 0 1.454.538 2.85 1.498 3.882.96 1.031 2.265 1.613 3.627 1.613 1.362 0 2.667-.582 3.627-1.613.96-1.031 1.498-2.428 1.498-3.882 0-1.455-.538-2.852-1.498-3.883-.96-1.031-2.265-1.613-3.627-1.613zM2.625 8.682c0-2.106.779-4.125 2.163-5.611C6.172 1.584 8.047.75 10 .75c1.953 0 3.828.833 5.212 2.32 1.384 1.486 2.163 3.505 2.163 5.61 0 2.107-.779 4.125-2.163 5.611-1.384 1.487-3.259 2.32-5.212 2.32-1.953 0-3.828-.833-5.212-2.32-1.384-1.486-2.163-3.504-2.163-5.61zm3 13.3c-1.665 0-3.25 1.708-3.25 4.153 0 .325-.12.636-.333.864a1.083 1.083 0 0 1-.792.353c-.295 0-.58-.126-.792-.353a1.27 1.27 0 0 1-.333-.864c0-3.491 2.334-6.588 5.5-6.588h8.75c3.166 0 5.5 3.097 5.5 6.588 0 .325-.12.636-.333.864a1.083 1.083 0 0 1-.792.353c-.295 0-.58-.126-.792-.353a1.27 1.27 0 0 1-.333-.864c0-2.445-1.585-4.153-3.25-4.153h-8.75z" fill="#A3A3A3" stroke="#fff" stroke-width=".25"/>
</svg>
